<svg width="165" height="64" viewBox="0 0 165 64" fill="none" xmlns="http://www.w3.org/2000/svg">
<path d="M0.000976562 33.299H29.974V40.791H26.228V44.539H29.974V63.271H0.000976562V33.299ZM18.733 40.791H7.49298V44.539H18.733V40.791ZM22.48 55.7789V52.0309H7.49298V55.7789H22.48Z" fill="#E97A31"/>
<path d="M63.6939 44.539H56.2009V40.791H44.9609V44.539H52.4539V52.0309H41.2139V55.7789H56.2009V48.285H63.6939V63.271H33.7209V44.539H37.4679V40.791H33.7209V33.299H63.6949L63.6939 44.539Z" fill="#E97A31"/>
<path d="M80.555 63.271H67.44V44.539H71.187V40.791H67.44V33.299H97.415V40.791H93.669V44.539H97.415V63.271H84.302V55.7789H89.921V52.0309H74.935V55.7789H80.555V63.271ZM86.175 40.791H78.681V44.539H86.175V40.791Z" fill="#E97A31"/>
<path d="M126.228 55.7789H131.136V63.271H121.993L114.2 52.0309H108.655V55.7789H112.401V63.271H101.161V44.539H104.908V40.791H101.161V33.299H131.136V52.0309H123.642L126.228 55.7789ZM123.642 44.539V40.791H112.402V44.539H123.642Z" fill="#E97A31"/>
<path d="M161.114 40.791V33.299H157.367H157.362H148.81H134.881V40.791H138.627V44.539H134.881V63.271H157.361L164.854 55.7789V40.791H161.114ZM157.362 55.7789H142.375V52.0309H146.122V40.791H148.81H157.362V55.7789Z" fill="#E97A31"/>
<path d="M54.327 0V29.975H46.835V26.227H43.087V29.975H24.354V0H31.846V22.48H35.594V0H43.086V18.734H46.834V0H54.327Z" fill="#E97A31"/>
<path d="M73.062 7.494H69.315V22.48H73.062V29.974H58.074V22.48H61.821V7.494H58.074V0H73.061L73.062 7.494Z" fill="#E97A31"/>
<path d="M88.048 18.734H84.302V22.48H99.288V14.986H106.782V29.974H76.808V11.24H80.555V7.494H76.808V0H91.795V7.494H88.048V18.734Z" fill="#E97A31"/>
<path d="M136.808 7.494V0H133.062H133.009H123.482H110.529V7.494H114.275V11.24H110.529V29.974H133.009L140.502 22.48V7.494H136.808ZM133.009 22.48H118.023V18.734H121.769V7.494H123.482H133.009V22.48Z" fill="#E97A31"/>
</svg>
