<svg width="1920" height="350" viewBox="0 0 1920 350" fill="none" xmlns="http://www.w3.org/2000/svg">
<g clip-path="url(#clip0_3_73)">
<path d="M1745.24 141.09L1631.18 185.179L1536.18 108.611L1337.9 222.091L1147.97 118.747L1092.11 155.058L972.002 57.299L878.036 121.54L815.43 89.418L722.68 121.54L630.763 57.299L525.066 97.077L409.185 0L0 319.852V349.76H497.172H787.66H1337.9H1919.79V222.091L1745.24 141.09Z" fill="#97869B"/>
<path d="M1147.97 118.747L1202.66 241.836L1337.9 349.76L1434.86 185.179L1483.27 188.575L1536.18 108.611L1337.9 222.091L1147.97 118.747Z" fill="#CBBCCE"/>
<path d="M1631.18 185.179L1682.31 243.632L1745.24 141.09L1631.18 185.179Z" fill="#CBBCCE"/>
<path d="M1092.11 155.058L972.002 57.299L957.589 107.575L877.457 203.529L982.483 349.76H1206.48L1141.44 218.3L1092.11 155.058Z" fill="#CBBCCE"/>
<path d="M472.036 132.8L365.482 349.76H828.148L409.185 0L472.036 132.8Z" fill="#CBBCCE"/>
</g>
<defs>
<clipPath id="clip0_3_73">
<rect width="1919.79" height="349.76" fill="white"/>
</clipPath>
</defs>
</svg>
