<?xml version="1.0" encoding="utf-8"?>
<!-- Generator: Adobe Illustrator 16.0.0, SVG Export Plug-In . SVG Version: 6.00 Build 0)  -->
<!DOCTYPE svg PUBLIC "-//W3C//DTD SVG 1.1//EN" "http://www.w3.org/Graphics/SVG/1.1/DTD/svg11.dtd">
<svg version="1.1" id="Layer_1" xmlns="http://www.w3.org/2000/svg" xmlns:xlink="http://www.w3.org/1999/xlink" x="0px" y="0px"
	 width="957.952px" height="367.868px" viewBox="0 0 957.952 367.868" enable-background="new 0 0 957.952 367.868"
	 xml:space="preserve">
<g>
	<path fill="#B74957" d="M909.063,235.328c0,6.912,3.906,8.114,6.912,8.114s6.612,0,10.819,0c4.208,0,5.91,3.006,5.91,7.814v48.889
		c0,6.612-5.41,12.022-12.021,12.022h-92.168c-20.037,0-24.846-10.421-31.257-22.442s-24.846-55.3-83.351-55.3
		c-58.506,0-71.33,32.859-81.75,54.499c-5.941,12.34-10.418,23.243-28.051,23.243h-96.975c-6.612,0-12.022-5.41-12.022-12.022
		V183.934c0-6.612,5.41-12.022,12.022-12.022h413.551c6.611,0,12.021,5.41,12.021,12.022v7.213c0,5.711-2.304,7.213-7.713,7.213
		c-5.41,0-6.612,0-9.618,0c-3.005,0-7.514,1.503-7.514,7.214C907.86,211.284,909.063,235.328,909.063,235.328z"/>
</g>
<g>
	<path fill="#B74957" d="M330.245,51.563c-16.288,23.7-60.595,88.078-65.164,93.3c-5.61,6.412-18.329,13.176-29.654,13.625
		c-80.946,3.206-219.197,19.436-229.418,35.062c-3.614,4.811-3.604,10.822-3.604,10.822s20.738,0,25.546,0
		s9.016,4.207,12.022,14.125c3.005,9.918,5.41,20.438,6.312,24.945c0.901,4.509,0,12.322-7.213,12.322c-7.213,0-21.94,0-21.94,0
		l6.312,12.322l43.359,0.069c15.5-17.705,40.157-28.123,64.236-28.123c40.075,0,65.718,35.265,82.548,72.135h275.7
		c0,0,0-100.987,0-140.255c0-24.009-10.462-90.106-14.86-117.212c-1.468-9.044-7.979-11.825-15.793-11.825H347.73
		C339.617,42.875,334.207,45.797,330.245,51.563z"/>
</g>
<g>
	<path fill="#873644" d="M489.286,270.891H188.824c4.995,6.093,9.539,12.796,13.681,19.836h286.781
		C489.286,284.905,489.286,278.177,489.286,270.891z"/>
</g>
<g>
	<g>
		<path fill="#873644" d="M932.705,270.891H786.389c5.487,7.858,8.808,14.966,10.87,18.834c0.18,0.336,0.357,0.669,0.533,1.002
			h134.913V270.891z"/>
	</g>
	<g>
		<path fill="#873644" d="M495.11,270.891v19.836h136.183c0.286-0.597,0.574-1.197,0.865-1.803c2.66-5.523,5.482-11.78,9.176-18.033
			H495.11z"/>
	</g>
</g>
<g>
	<path fill="#231F20" d="M17.131,255.764c0.266,0.521,0.51,0.998,0.742,1.449L17.131,255.764z"/>
</g>
<g>
	<path fill="#B5B5B5" d="M939.117,270.891v39.673c0,0,7.214,0,9.618,0s9.217-2.003,9.217-10.019c0-8.015,0-8.015,0-8.015l0,0
		c0,0,0-7.612,0-12.822s-2.806-8.817-6.813-8.817S939.117,270.891,939.117,270.891z"/>
</g>
<g>
	<path fill="#5B4139" d="M515.148,169.508c0,1.328-1.076,2.404-2.404,2.404h-4.008c-1.328,0-2.404-1.077-2.404-2.404v-24.845
		c0-1.328,1.076-2.404,2.404-2.404h4.008c1.328,0,2.404,1.076,2.404,2.404V169.508z"/>
</g>
<g>
	<path fill="#5B4139" d="M920.283,152.677c1.327,0,2.404,1.077,2.404,2.404v4.008c0,1.328-1.077,2.404-2.404,2.404H498.318
		c-1.329,0-2.404-1.077-2.404-2.404v-4.008c0-1.328,1.075-2.404,2.404-2.404H920.283z"/>
</g>
<g>
	<path fill="#5B4139" d="M911.869,169.508c0,1.328-1.077,2.404-2.404,2.404h-4.009c-1.327,0-2.404-1.077-2.404-2.404v-24.845
		c0-1.328,1.077-2.404,2.404-2.404h4.009c1.327,0,2.404,1.076,2.404,2.404V169.508z"/>
</g>
<g>
	<path fill="#5B4139" d="M710.704,169.508c0,1.328-1.076,2.404-2.404,2.404h-4.008c-1.328,0-2.404-1.077-2.404-2.404v-11.22
		c0-1.328,1.076-2.405,2.404-2.405h4.008c1.328,0,2.404,1.077,2.404,2.405V169.508z"/>
</g>
<g>
	<polygon fill="#5B4139" points="530.777,0 521.96,0 491.905,151.475 500.723,151.475 	"/>
</g>
<g>
	<polygon fill="#2D292A" points="334.646,94.185 342.823,83.552 348.272,171.912 339.455,171.912 	"/>
</g>
<g>
	<path fill="#CCCCC8" d="M43.182,230.068c-0.941-3.685-2.027-7.671-3.209-11.571c-3.006-9.918-7.213-14.125-12.022-14.125
		s-25.546,0-25.546,0c-0.865,4.759,1.249,14.948,4.59,25.696H43.182z"/>
</g>
<g>
	<path fill="#E88236" d="M46.284,243.442c-0.634-3.172-2.014-9.32-3.822-16.139c0.249,0.936,0.488,1.859,0.72,2.765H6.994
		c2.848,9.164,6.587,18.733,10.137,25.696c0,0,14.727,0,21.94,0C46.284,255.764,47.186,247.951,46.284,243.442z"/>
</g>
<g>
	<path fill="#B5B5B5" d="M23.442,268.086c-5.81,0-7.413,0-13.424,0c-6.011,0-10.018,6.009-7.614,16.229
		c2.404,10.222,3.406,22.243,14.727,22.243c11.321,0,37.769,0,37.769,0s0.961-24.711,11.901-38.403L23.442,268.086z"/>
</g>
<g>
	<g>
		<path fill="#B5B5B5" d="M508.736,266.887c-0.663,0-1.202-0.539-1.202-1.202v-4.009c0-0.663,0.539-1.202,1.202-1.202h116.211
			c0.663,0,1.202,0.539,1.202,1.202v4.009c0,0.663-0.539,1.202-1.202,1.202H508.736z"/>
	</g>
	<g>
		<path fill="#231F20" d="M624.947,261.676L624.947,261.676v4.009H508.736v-4.009H624.947 M624.947,259.272H508.736
			c-1.328,0-2.404,1.077-2.404,2.404v4.009c0,1.327,1.076,2.404,2.404,2.404h116.211c1.328,0,2.404-1.077,2.404-2.404v-4.009
			C627.352,260.349,626.275,259.272,624.947,259.272L624.947,259.272z"/>
	</g>
</g>
<g>
	<g>
		<path fill="#B5B5B5" d="M798.462,266.887c-0.663,0-1.202-0.539-1.202-1.202v-4.009c0-0.663,0.539-1.202,1.202-1.202H901.85
			c0.663,0,1.202,0.539,1.202,1.202v4.009c0,0.663-0.539,1.202-1.202,1.202H798.462z"/>
	</g>
	<g>
		<path fill="#231F20" d="M901.85,261.676L901.85,261.676v4.009H798.462v-4.009H901.85 M901.85,259.272H798.462
			c-1.327,0-2.404,1.077-2.404,2.404v4.009c0,1.327,1.077,2.404,2.404,2.404H901.85c1.328,0,2.404-1.077,2.404-2.404v-4.009
			C904.254,260.349,903.178,259.272,901.85,259.272L901.85,259.272z"/>
	</g>
</g>
<g>
	<g>
		<path fill="#B5B5B5" d="M266.084,266.887c-0.663,0-1.203-0.539-1.203-1.202v-4.009c0-0.663,0.54-1.202,1.203-1.202h196.357
			c0.663,0,1.202,0.539,1.202,1.202v4.009c0,0.663-0.539,1.202-1.202,1.202H266.084z"/>
	</g>
	<g>
		<path fill="#231F20" d="M462.441,261.676L462.441,261.676v4.009H266.083l0-4.009H462.441 M462.441,259.272H266.084
			c-1.328,0-2.405,1.077-2.405,2.404v4.009c0,1.327,1.077,2.404,2.405,2.404h196.357c1.327,0,2.404-1.077,2.404-2.404v-4.009
			C464.845,260.349,463.768,259.272,462.441,259.272L462.441,259.272z"/>
	</g>
</g>
<g>
	<g>
		<path fill="#B5B5B5" d="M478.469,266.887c-0.663,0-1.202-0.539-1.202-1.202v-4.009c0-0.663,0.539-1.202,1.202-1.202h3.207
			c0.663,0,1.202,0.539,1.202,1.202v4.009c0,0.663-0.539,1.202-1.202,1.202H478.469z"/>
	</g>
	<g>
		<path fill="#231F20" d="M481.676,261.676L481.676,261.676v4.009h-3.207v-4.009H481.676 M481.676,259.272h-3.207
			c-1.328,0-2.404,1.077-2.404,2.404v4.009c0,1.327,1.076,2.404,2.404,2.404h3.207c1.326,0,2.404-1.077,2.404-2.404v-4.009
			C484.08,260.349,483.002,259.272,481.676,259.272L481.676,259.272z"/>
	</g>
</g>
<g>
	<g>
		<path fill="#B5B5B5" d="M207.177,266.887c-0.663,0-1.202-0.539-1.202-1.202v-4.009c0-0.663,0.539-1.202,1.202-1.202h36.264
			c0.663,0,1.202,0.539,1.202,1.202v4.009c0,0.663-0.539,1.202-1.202,1.202H207.177z"/>
	</g>
	<g>
		<path fill="#231F20" d="M243.441,261.676L243.441,261.676v4.009h-36.264v-4.009H243.441 M243.441,259.272h-36.264
			c-1.328,0-2.404,1.077-2.404,2.404v4.009c0,1.327,1.077,2.404,2.404,2.404h36.264c1.327,0,2.404-1.077,2.404-2.404v-4.009
			C245.845,260.349,244.768,259.272,243.441,259.272L243.441,259.272z"/>
	</g>
</g>
<g>
	<path d="M930.702,196.759H497.515c-0.664,0-1.202-0.538-1.202-1.202s0.538-1.202,1.202-1.202h433.188
		c0.664,0,1.202,0.538,1.202,1.202S931.366,196.759,930.702,196.759z"/>
</g>
<g>
	<path fill="#FFFFFF" d="M905.456,203.47H499.92c-0.83,0-1.503-0.673-1.503-1.503s0.673-1.503,1.503-1.503h405.536
		c0.83,0,1.503,0.673,1.503,1.503S906.286,203.47,905.456,203.47z"/>
</g>
<g>
	<path fill="#FFFFFF" d="M481.475,203.47H51.292c-0.83,0-1.503-0.673-1.503-1.503s0.673-1.503,1.503-1.503h430.182
		c0.83,0,1.503,0.673,1.503,1.503S482.305,203.47,481.475,203.47z"/>
</g>
<g>
	<rect x="491.905" y="151.475" fill="#5B4139" width="8.816" height="10.019"/>
</g>
<g>
	<path d="M266.283,313.37c-0.501,0-0.969-0.315-1.139-0.816l-8.415-24.845c-17.897-69.785-4.812-103.286,10.346-126.864
		c14.281-22.214,75.762-106.012,76.381-106.856c0.227-0.309,0.586-0.491,0.969-0.491h120.42c0.664,0,1.203,0.538,1.203,1.202
		s-0.539,1.202-1.203,1.202H345.034c-5.103,6.959-62.266,84.977-75.937,106.242c-14.877,23.143-27.707,56.077-10.065,124.88
		l8.389,24.758c0.213,0.629-0.124,1.312-0.753,1.524C266.541,313.349,266.411,313.37,266.283,313.37z"/>
</g>
<g>
	<path fill="#2D292A" d="M34.249,258.893c-9.609,0-17.037-0.706-17.349-0.735c-1.321-0.128-2.29-1.303-2.162-2.624
		s1.308-2.271,2.624-2.163c0.074,0.008,7.522,0.714,16.887,0.714c7.595,0,9.062-3.19,9.638-10.823
		c0.379-5.02-1.54-10.398-3.571-16.093c-0.924-2.589-1.879-5.266-2.656-8.018c-2.404-8.503-6.718-12.375-9.708-12.375H2.404
		C1.076,206.776,0,205.7,0,204.372s1.076-2.404,2.404-2.404h25.546c5.982,0,11.609,6.231,14.335,15.875
		c0.734,2.597,1.662,5.196,2.559,7.711c2.208,6.188,4.292,12.033,3.837,18.069C48.124,251.011,46.502,258.893,34.249,258.893z"/>
</g>
<g>
	<path d="M469.453,313.37c-0.022,0-0.045-0.001-0.068-0.002c-0.663-0.037-1.17-0.604-1.133-1.268l1.202-21.44
		c4.115-31.972,0.116-126.387,0.001-129.063L455.637,54.854c-0.085-0.658,0.379-1.261,1.038-1.347
		c0.659-0.089,1.261,0.38,1.347,1.038l13.825,106.794c0.004,0.034,0.007,0.068,0.009,0.102c0.042,0.967,4.163,97.052-0.009,129.438
		l-1.194,21.354C470.616,312.875,470.086,313.37,469.453,313.37z"/>
</g>
<g>
	<path d="M481.475,196.759h-228.7c-0.664,0-1.202-0.538-1.202-1.202s0.538-1.202,1.202-1.202h228.7c0.664,0,1.202,0.538,1.202,1.202
		S482.139,196.759,481.475,196.759z"/>
</g>
<g>
	<path fill="#B5B5B5" d="M366.666,64.918c-7.935,0-18.034,5.397-22.444,11.993l-55.494,83.008
		c-4.41,6.596-1.526,11.993,6.408,11.993h144.863c7.935,0,13.702-6.451,12.815-14.335l-8.8-78.323
		c-0.886-7.885-8.102-14.336-16.037-14.336H366.666z"/>
</g>
<g>
	<defs>
		<path id="SVGID_1_" d="M366.666,64.918c-7.935,0-18.034,5.397-22.444,11.993l-55.494,83.008
			c-4.41,6.596-1.526,11.993,6.408,11.993h144.863c7.935,0,13.702-6.451,12.815-14.335l-8.8-78.323
			c-0.886-7.885-8.102-14.336-16.037-14.336H366.666z"/>
	</defs>
	<clipPath id="SVGID_2_">
		<use xlink:href="#SVGID_1_"  overflow="visible"/>
	</clipPath>
	<g clip-path="url(#SVGID_2_)">
		<g>
			<path fill="#1E1E1E" d="M410.042,128.244c6.466,0.855,18.515,7.496,16.313,24.137c-2.201,16.642-6.488,49.044-6.488,49.044
				l-44.547-6.352c0,0,4.03-29.522,5.62-41.545c1.591-12.024,13.596-27.335,23.849-25.979
				C408.168,127.996,410.042,128.244,410.042,128.244z"/>
		</g>
		<g>
			<path fill="#4781A0" d="M397.324,68.72c-4.972-0.001-11.216,3.757-11.217,7.805c0.001,4.051,0,11.825,0,11.825L366.86,88.35
				v5.798l65.655,0.006c0,0-0.574-8.983-0.575-14.719c0.003-5.739-3.442-10.521-9.944-10.521
				C415.492,68.913,397.324,68.72,397.324,68.72z"/>
		</g>
		<g>
			<path fill="#40728D" d="M407.842,84.022c0-2.285,0-10.505,0.001-15.2c-5.62-0.05-10.52-0.102-10.52-0.102
				c-4.972-0.001-11.216,3.757-11.217,7.805c0.001,4.051,0,11.825,0,11.825c4.712,0.001,12.938,0.001,15.806,0.002
				C404.781,88.353,407.841,87.273,407.842,84.022z"/>
		</g>
		<g>
			<path fill="#FCDFCB" d="M381.151,94.148l-0.001,32.018c10.89,0.001,22.826,0.001,31.217,0.002
				c8.393,0.001,13.616-1.491,13.616-9.511c0.003-8.02,0.003-22.505,0.003-22.505L381.151,94.148z"/>
		</g>
		<g>
			<path fill="#703416" d="M386.105,94.149c0,0,0,2.92,0.001,4.413c-0.001,1.492,2.389,4.662,7.798,4.663s28.351,0.001,28.351,0.001
				l-0.001,16.6c0,0,0.037,0,3.208,0.002c3.169,0,7.049-2.24,7.051-8.394c0-6.155,0.002-17.281,0.002-17.281L386.105,94.149z"/>
		</g>
		<g>
			<path fill="#A63822" d="M413.302,103.227c0,0-0.002,12.308-0.001,19.956c-0.001,7.646-1.752,16.6-9.735,16.6
				c-7.985,0-11.156-0.002-14.327-0.002c-3.171,0-8.091-2.425-8.089-13.615c0-11.191,0.002-17.906,0.002-17.906s1.375,0.001,2.681,0
				c1.306,0.001,3.17,1.493,3.171,5.408l13.43,0.001l0-10.443L413.302,103.227z"/>
		</g>
		<g>
			<path fill="#1E1E1E" d="M412.614,144.167c2.665,2.61,2.717,5.061,0.219,8.305c-2.5,3.245-10.107,12.399-10.107,12.399
				l-17.542-15.303c0,0,9.764-9.809,11.279-11.302c1.515-1.493,6.374-2.819,9.096-0.489
				C408.938,140.668,412.614,144.167,412.614,144.167z"/>
		</g>
		<g>
			<path fill="#FCDFCE" d="M389.179,150.659l-8.853,8.613l-37.917-16.304c0,0-8.247-1.656-10.341-0.052
				c-2.094,1.605-5.804,12.589-2.327,14.743c3.479,2.153,8.505,1.125,9.724-0.972c1.218-2.096-3.505-4.792-2.361-6.333
				c0,0,31.272,26.715,47.803,28.337l16.889-17.332L389.179,150.659z"/>
		</g>
	</g>
</g>
<g>
	<path fill="#2D292A" d="M427.977,67.322c6.655,0,12.904,5.587,13.647,12.2l8.8,78.323c0.351,3.124-0.538,6.055-2.503,8.253
		c-1.965,2.199-4.779,3.41-7.923,3.41H295.136c-2.866,0-4.948-0.821-5.713-2.252c-0.765-1.431-0.29-3.618,1.304-6l55.494-83.008
		c3.959-5.922,13.322-10.925,20.445-10.925H427.977 M427.977,64.918h-61.312c-7.935,0-18.034,5.397-22.444,11.993l-55.494,83.008
		c-4.41,6.596-1.526,11.993,6.408,11.993h144.863c7.935,0,13.702-6.451,12.815-14.335l-8.8-78.323
		C443.128,71.369,435.912,64.918,427.977,64.918L427.977,64.918z"/>
</g>
<g>
	<path fill="#AA1111" d="M929.074,197.868L929.074,197.868c-1.092,0.352-2.442,0.492-4.082,0.492c-5.41,0-6.612,0-9.618,0
		c-3.005,0-7.514,1.503-7.514,7.214c0,5.71,1.203,29.754,1.203,29.754c0,6.912,3.906,8.114,6.912,8.114s6.612,0,10.819,0
		C938.917,218.396,929.074,197.868,929.074,197.868z"/>
</g>
<g>
	<path fill="#2D292A" d="M358.3,181.13c0,1.328-1.077,2.404-2.404,2.404h-45.131c-1.328,0-2.404-1.076-2.404-2.404v-7.314
		c0-1.328,1.077-2.404,2.404-2.404h45.131c1.328,0,2.404,1.077,2.404,2.404V181.13z"/>
</g>
<g>
	<path fill="#E5E5E5" d="M345.149,135.789c3.359,7.873,11.899,23.898,13.102,29.71c1.202,5.812-19.836,18.036-24.645,18.036
		s-18.033-31.659-18.033-31.659s-3.752-5.78,4.809-12.423C336.65,126.831,342.852,130.404,345.149,135.789z"/>
</g>
<g>
	<path fill="#2D292A" d="M332.579,132.041l18.332,42.741c4.457-3.308,7.842-6.854,7.339-9.283
		c-1.202-5.812-9.743-21.837-13.102-29.71C343.549,132.038,340.05,129.174,332.579,132.041z"/>
</g>
<g>
	<g>
		<circle fill="#2D292A" cx="128.634" cy="309.562" r="58.306"/>
	</g>
	<g>
		<circle fill="#E5E5E5" cx="128.634" cy="309.562" r="31.257"/>
	</g>
	<g>
		<circle fill="#B5B5B5" cx="128.634" cy="309.562" r="25.246"/>
	</g>
	<g>
		<circle fill="#E5E5E5" cx="128.634" cy="309.562" r="12.022"/>
	</g>
	<g>
		<circle fill="#B5B5B5" cx="128.634" cy="309.562" r="8.011"/>
	</g>
	<g>
		<circle fill="#B5B5B5" cx="128.634" cy="300.748" r="2.005"/>
		<path fill="#2D292A" d="M128.633,303.354c-1.437,0-2.606-1.17-2.606-2.606s1.169-2.606,2.606-2.606s2.606,1.17,2.606,2.606
			S130.07,303.354,128.633,303.354z M128.633,299.344c-0.774,0-1.404,0.629-1.404,1.403s0.63,1.403,1.404,1.403
			c0.774,0,1.404-0.629,1.404-1.403S129.408,299.344,128.633,299.344z"/>
	</g>
	<g>
		<circle fill="#B5B5B5" cx="120.25" cy="306.838" r="2.005"/>
		<path fill="#2D292A" d="M120.251,309.445L120.251,309.445c-0.274,0-0.545-0.043-0.807-0.129c-0.661-0.214-1.2-0.674-1.516-1.294
			c-0.316-0.62-0.372-1.327-0.157-1.989c0.434-1.338,1.936-2.115,3.284-1.672c0.662,0.215,1.2,0.675,1.516,1.295
			c0.316,0.62,0.372,1.326,0.156,1.988C122.379,308.721,121.383,309.445,120.251,309.445z M120.249,305.434
			c-0.609,0-1.145,0.39-1.333,0.97c-0.116,0.357-0.086,0.738,0.084,1.072s0.46,0.581,0.816,0.696c0.143,0.047,0.289,0.07,0.436,0.07
			l0,0c0.61,0,1.146-0.39,1.333-0.97c0.116-0.357,0.086-0.737-0.084-1.071s-0.46-0.582-0.816-0.698
			C120.542,305.458,120.396,305.434,120.249,305.434z"/>
	</g>
	<g>
		<circle fill="#B5B5B5" cx="123.452" cy="316.694" r="2.005"/>
		<path fill="#2D292A" d="M123.45,319.3L123.45,319.3c-0.552,0-1.082-0.172-1.53-0.498c-0.563-0.409-0.933-1.013-1.042-1.7
			c-0.108-0.688,0.057-1.377,0.466-1.94c0.814-1.119,2.518-1.391,3.641-0.576c1.163,0.847,1.42,2.479,0.575,3.641
			C125.071,318.899,124.282,319.3,123.45,319.3z M123.455,315.29c-0.449,0-0.875,0.217-1.138,0.579
			c-0.221,0.304-0.31,0.675-0.251,1.045c0.059,0.371,0.258,0.696,0.561,0.916c0.609,0.442,1.523,0.292,1.962-0.311
			c0.456-0.626,0.316-1.505-0.31-1.961C124.037,315.382,123.752,315.29,123.455,315.29z"/>
	</g>
	<g>
		<circle fill="#B5B5B5" cx="133.814" cy="316.693" r="2.005"/>
		<path fill="#2D292A" d="M133.817,319.3C133.817,319.3,133.817,319.3,133.817,319.3c-0.833,0-1.623-0.402-2.111-1.075
			c-0.409-0.563-0.574-1.252-0.465-1.938c0.108-0.688,0.479-1.292,1.042-1.701c1.124-0.815,2.828-0.542,3.641,0.576
			c0.843,1.162,0.584,2.796-0.576,3.642C134.898,319.128,134.369,319.3,133.817,319.3z M133.813,315.29
			c-0.297,0-0.583,0.094-0.825,0.269c-0.303,0.22-0.502,0.545-0.561,0.916c-0.059,0.37,0.03,0.741,0.25,1.044
			c0.438,0.604,1.355,0.752,1.962,0.313c0.625-0.455,0.765-1.336,0.311-1.963C134.688,315.506,134.263,315.29,133.813,315.29z"/>
	</g>
	<g>
		<circle fill="#B5B5B5" cx="137.016" cy="306.839" r="2.005"/>
		<path fill="#2D292A" d="M137.019,309.446L137.019,309.446c-1.135-0.001-2.132-0.725-2.481-1.802
			c-0.442-1.368,0.309-2.841,1.674-3.283c1.347-0.437,2.85,0.335,3.285,1.672c0.444,1.367-0.308,2.841-1.674,3.285
			C137.56,309.403,137.291,309.446,137.019,309.446z M137.018,305.434c-0.147,0-0.293,0.023-0.435,0.069
			c-0.735,0.239-1.139,1.033-0.901,1.771c0.188,0.579,0.726,0.969,1.337,0.969l0,0c0.146,0,0.292-0.022,0.432-0.068
			c0.736-0.239,1.141-1.033,0.902-1.77C138.164,305.825,137.627,305.434,137.018,305.434z"/>
	</g>
	<g>
		<g>
			<path fill="#2D292A" d="M128.633,284.316c-4.043,0-7.851,0.975-11.239,2.665c0.485,5.757,1.588,10.231,3.143,13.714
				c2.137-1.953,4.973-3.154,8.096-3.154c0.748,0,1.477,0.077,2.186,0.208c1.02-3.479,3.038-7.399,6.343-11.924
				C134.494,284.866,131.631,284.316,128.633,284.316z"/>
		</g>
		<g>
			<path fill="#2D292A" d="M117.737,314.616c-0.715-1.537-1.125-3.246-1.125-5.054c0-1.946,0.473-3.778,1.293-5.403
				c-3.182-2.07-6.484-5.223-9.901-9.119c-2.899,4.11-4.616,9.111-4.616,14.522c0,1.2,0.113,2.369,0.274,3.524
				C109.537,314.654,114.029,314.973,117.737,314.616z"/>
		</g>
		<g>
			<path fill="#2D292A" d="M146.485,291.711c-4.739,2.41-8.729,4.937-11.628,7.579c3.136,1.905,5.339,5.192,5.733,9.026
				c3.525-0.052,7.735,0.67,13.212,2.761c0.03-0.505,0.077-1.004,0.077-1.516C153.879,302.591,151.053,296.28,146.485,291.711z"/>
		</g>
		<g>
			<path fill="#2D292A" d="M135.286,333.892c6.838-1.865,12.515-6.517,15.729-12.677c-3.737-3.908-7.327-6.927-10.702-8.852
				c-0.855,3.578-3.306,6.528-6.563,8.064C134.909,323.809,135.509,328.127,135.286,333.892z"/>
		</g>
		<g>
			<path fill="#2D292A" d="M124.061,334.374c3.235-5.008,5.011-9.208,5.838-12.857c-0.416,0.044-0.837,0.068-1.266,0.068
				c-3.311,0-6.309-1.34-8.483-3.506c-2.921,2.323-6.938,4.438-11.845,6.408C112.04,329.565,117.614,333.193,124.061,334.374z"/>
		</g>
	</g>
</g>
<g>
	<g>
		<circle fill="#2D292A" cx="713.908" cy="309.562" r="58.306"/>
	</g>
	<g>
		<circle fill="#E5E5E5" cx="713.908" cy="309.562" r="31.257"/>
	</g>
	<g>
		<circle fill="#B5B5B5" cx="713.908" cy="309.562" r="25.246"/>
	</g>
	<g>
		<circle fill="#E5E5E5" cx="713.908" cy="309.562" r="12.022"/>
	</g>
	<g>
		<circle fill="#B5B5B5" cx="713.908" cy="309.562" r="8.011"/>
	</g>
	<g>
		<circle fill="#B5B5B5" cx="713.908" cy="300.748" r="2.005"/>
		<path fill="#2D292A" d="M713.908,303.354c-1.438,0-2.607-1.17-2.607-2.606s1.17-2.606,2.607-2.606c1.437,0,2.606,1.17,2.606,2.606
			S715.345,303.354,713.908,303.354z M713.908,299.344c-0.774,0-1.404,0.629-1.404,1.403s0.63,1.403,1.404,1.403
			s1.403-0.629,1.403-1.403S714.683,299.344,713.908,299.344z"/>
	</g>
	<g>
		<circle fill="#B5B5B5" cx="705.524" cy="306.838" r="2.005"/>
		<path fill="#2D292A" d="M705.525,309.445L705.525,309.445c-0.273,0-0.545-0.043-0.807-0.129c-0.661-0.214-1.2-0.674-1.516-1.294
			c-0.316-0.62-0.372-1.327-0.156-1.989c0.433-1.337,1.936-2.115,3.283-1.672c0.662,0.215,1.2,0.675,1.516,1.295
			c0.316,0.62,0.372,1.326,0.156,1.988C707.652,308.721,706.657,309.445,705.525,309.445z M705.523,305.434
			c-0.61,0-1.146,0.39-1.333,0.97c-0.116,0.357-0.087,0.738,0.083,1.072c0.171,0.334,0.46,0.581,0.816,0.696
			c0.143,0.047,0.288,0.07,0.436,0.07l0,0c0.609,0,1.146-0.39,1.334-0.97c0.115-0.357,0.086-0.737-0.084-1.071
			c-0.171-0.334-0.461-0.582-0.816-0.698C705.816,305.458,705.671,305.434,705.523,305.434z"/>
	</g>
	<g>
		<circle fill="#B5B5B5" cx="708.727" cy="316.694" r="2.005"/>
		<path fill="#2D292A" d="M708.725,319.3L708.725,319.3c-0.553,0-1.082-0.172-1.531-0.498c-0.563-0.409-0.933-1.013-1.041-1.7
			c-0.109-0.688,0.057-1.377,0.466-1.94c0.813-1.119,2.518-1.392,3.642-0.576c1.162,0.847,1.42,2.479,0.575,3.641
			C710.346,318.899,709.557,319.3,708.725,319.3z M708.729,315.29c-0.449,0-0.875,0.217-1.139,0.579
			c-0.221,0.304-0.31,0.675-0.252,1.045c0.059,0.371,0.258,0.696,0.562,0.916c0.607,0.44,1.523,0.292,1.962-0.311
			c0.455-0.626,0.316-1.506-0.31-1.961C709.312,315.382,709.026,315.29,708.729,315.29z"/>
	</g>
	<g>
		<circle fill="#B5B5B5" cx="719.089" cy="316.693" r="2.005"/>
		<path fill="#2D292A" d="M719.092,319.3L719.092,319.3c-0.833,0-1.622-0.402-2.111-1.075c-0.844-1.163-0.586-2.796,0.576-3.64
			c1.125-0.815,2.828-0.542,3.641,0.576c0.843,1.162,0.585,2.796-0.575,3.641C720.173,319.128,719.644,319.3,719.092,319.3z
			 M719.088,315.29c-0.298,0-0.583,0.093-0.825,0.269c-0.625,0.454-0.765,1.334-0.31,1.96c0.438,0.604,1.354,0.752,1.961,0.313
			c0.625-0.455,0.765-1.336,0.311-1.963C719.962,315.506,719.536,315.29,719.088,315.29z"/>
	</g>
	<g>
		<circle fill="#B5B5B5" cx="722.291" cy="306.839" r="2.005"/>
		<path fill="#2D292A" d="M722.293,309.446L722.293,309.446c-1.134-0.001-2.131-0.725-2.48-1.802
			c-0.442-1.368,0.309-2.841,1.674-3.283c1.351-0.438,2.85,0.336,3.284,1.672c0.443,1.368-0.308,2.841-1.675,3.285
			C722.835,309.403,722.564,309.446,722.293,309.446z M722.292,305.434c-0.146,0-0.293,0.023-0.435,0.069
			c-0.735,0.239-1.14,1.033-0.901,1.771c0.188,0.579,0.726,0.969,1.337,0.969l0,0c0.146,0,0.292-0.022,0.433-0.068
			c0.735-0.239,1.141-1.033,0.902-1.77C723.438,305.825,722.901,305.434,722.292,305.434z"/>
	</g>
	<g>
		<g>
			<path fill="#2D292A" d="M713.908,284.316c-4.044,0-7.852,0.975-11.24,2.665c0.486,5.757,1.59,10.231,3.144,13.714
				c2.137-1.953,4.974-3.154,8.097-3.154c0.748,0,1.477,0.077,2.186,0.208c1.02-3.479,3.038-7.399,6.342-11.924
				C719.769,284.866,716.906,284.316,713.908,284.316z"/>
		</g>
		<g>
			<path fill="#2D292A" d="M703.011,314.616c-0.714-1.537-1.125-3.246-1.125-5.054c0-1.946,0.474-3.778,1.294-5.403
				c-3.182-2.07-6.484-5.223-9.901-9.119c-2.898,4.11-4.616,9.111-4.616,14.522c0,1.2,0.112,2.369,0.274,3.524
				C694.812,314.654,699.304,314.973,703.011,314.616z"/>
		</g>
		<g>
			<path fill="#2D292A" d="M731.76,291.711c-4.738,2.41-8.729,4.937-11.627,7.579c3.135,1.905,5.338,5.192,5.732,9.026
				c3.525-0.052,7.735,0.67,13.212,2.761c0.029-0.505,0.076-1.004,0.076-1.516C739.153,302.591,736.328,296.28,731.76,291.711z"/>
		</g>
		<g>
			<path fill="#2D292A" d="M720.56,333.892c6.839-1.865,12.517-6.517,15.73-12.677c-3.736-3.908-7.327-6.927-10.702-8.852
				c-0.855,3.578-3.306,6.528-6.563,8.064C720.185,323.809,720.783,328.127,720.56,333.892z"/>
		</g>
		<g>
			<path fill="#2D292A" d="M709.335,334.374c3.234-5.008,5.011-9.208,5.839-12.857c-0.416,0.044-0.839,0.068-1.266,0.068
				c-3.311,0-6.31-1.34-8.483-3.506c-2.921,2.323-6.938,4.438-11.846,6.408C697.314,329.565,702.889,333.193,709.335,334.374z"/>
		</g>
	</g>
</g>
</svg>
