<svg width="40" height="54" viewBox="0 0 40 54" fill="none" xmlns="http://www.w3.org/2000/svg">
	<path d="M6.59016 32.5L3.09016 31L0.0901605 38.5L36.5902 53L39.5902 45.5L36.0902 44L34.5902 47.5L5.09016 36L6.59016 32.5Z" fill="#C1A159"/>
	<path d="M3.67267 44.1035L0.0911325 45.3968L3.019 52.9253L39.5892 38.6032L36.6613 31.0747L33.0798 32.368L34.373 35.9496L4.96594 47.6851L3.67267 44.1035Z" fill="#C1A159"/>
	<path d="M9.09016 16L2.59016 29.5H6.09016L10.5902 20L15.5902 29.5H19.0902L12.0902 16H9.09016Z" fill="#EA7628"/>
	<path d="M26.5902 16L20.0902 29.5H23.5902L28.0902 20L33.0902 29.5H36.5902L29.5902 16H26.5902Z" fill="#EA7628"/>
	<path d="M17.5902 0L11.0902 13.5H14.5902L19.0902 4L24.0902 13.5H27.5902L20.5902 0H17.5902Z" fill="#EA7628"/>
</svg>
