<svg width="425" height="191" viewBox="0 0 425 191" fill="none" xmlns="http://www.w3.org/2000/svg">
<path d="M424 182H1V190H424V182Z" fill="#624129" stroke="#3C2A1D"/>
<rect x="60.5" y="1.5" width="305" height="172" rx="2.5" fill="#1E1E2E" stroke="#5C5C5C" stroke-width="3"/>
<path d="M62 168H83V172H63C62.4477 172 62 171.552 62 171V168Z" fill="#DFFF00"/>
<path d="M364 168H343V172H363C363.552 172 364 171.552 364 171V168Z" fill="#DF5F00"/>
<rect x="319" y="168" width="24" height="4" fill="#DFFF00"/>
<rect x="83" y="168" width="236" height="4" fill="#202020"/>
<rect x="308" y="168" width="11" height="4" fill="#444444"/>
<rect x="83" y="168" width="15" height="4" fill="#444444"/>
<path d="M64.4507 5.43066L64.5576 4.36719H65.6519V4.63086H64.7861L64.7261 5.19922C64.7681 5.1748 64.8184 5.15332 64.877 5.13477C64.9355 5.11621 65.0034 5.10693 65.0806 5.10693C65.1792 5.10693 65.2676 5.12402 65.3457 5.1582C65.4238 5.19238 65.4902 5.24023 65.5449 5.30176C65.5996 5.36426 65.6416 5.43945 65.6709 5.52734C65.7002 5.61523 65.7148 5.71289 65.7148 5.82031C65.7148 5.92188 65.7012 6.01611 65.6738 6.10303C65.6465 6.18994 65.6055 6.26465 65.5508 6.32715C65.4951 6.39062 65.4253 6.44043 65.3413 6.47656C65.2573 6.51172 65.1587 6.5293 65.0454 6.5293C64.9585 6.5293 64.8765 6.51709 64.7993 6.49268C64.7222 6.46826 64.6538 6.43164 64.5942 6.38281C64.5337 6.33398 64.4839 6.27246 64.4448 6.19824C64.4067 6.12402 64.3828 6.0376 64.373 5.93896H64.6309C64.6475 6.06006 64.6919 6.15186 64.7642 6.21436C64.8374 6.27686 64.9312 6.30811 65.0454 6.30811C65.1099 6.30811 65.167 6.29688 65.2168 6.27441C65.2666 6.25098 65.3086 6.21777 65.3428 6.1748C65.376 6.13281 65.4009 6.08203 65.4175 6.02246C65.4351 5.96289 65.4438 5.89648 65.4438 5.82324C65.4438 5.75684 65.4341 5.69482 65.4146 5.63721C65.396 5.57959 65.3687 5.5293 65.3325 5.48633C65.2964 5.44434 65.252 5.41113 65.1992 5.38672C65.1465 5.3623 65.0859 5.3501 65.0176 5.3501C64.9727 5.3501 64.9336 5.35352 64.9004 5.36035C64.8682 5.36621 64.8389 5.375 64.8125 5.38672C64.7861 5.39844 64.7612 5.4126 64.7378 5.4292C64.7153 5.4458 64.6919 5.46484 64.6675 5.48633L64.4507 5.43066ZM65.4526 9.78369H65.75V10.0049H65.4526V10.5H65.1816V10.0049H64.209V9.84521L65.1641 8.36719H65.4526V9.78369ZM64.5093 9.78369H65.1816V8.72754L65.1377 8.80957L64.5093 9.78369ZM64.6704 13.3032H64.8638C64.9321 13.3032 64.9922 13.2939 65.0439 13.2754C65.0967 13.2568 65.1411 13.2314 65.1772 13.1992C65.2124 13.167 65.2393 13.1284 65.2578 13.0835C65.2764 13.0386 65.2856 12.9893 65.2856 12.9355C65.2856 12.8721 65.2773 12.8169 65.2607 12.77C65.2441 12.7222 65.2197 12.6826 65.1875 12.6514C65.1562 12.6211 65.1172 12.5986 65.0703 12.584C65.0244 12.5684 64.9717 12.5605 64.9121 12.5605C64.8545 12.5605 64.8018 12.5693 64.7539 12.5869C64.707 12.6035 64.667 12.6279 64.6338 12.6602C64.5996 12.6924 64.5732 12.731 64.5547 12.7759C64.5361 12.8208 64.5269 12.8711 64.5269 12.9268H64.2544C64.2544 12.8457 64.27 12.7695 64.3013 12.6982C64.3335 12.626 64.3784 12.563 64.436 12.5093C64.4937 12.4565 64.5625 12.415 64.6426 12.3848C64.7236 12.3535 64.8135 12.3379 64.9121 12.3379C65.0078 12.3379 65.0952 12.3511 65.1743 12.3774C65.2534 12.4028 65.3213 12.4409 65.3779 12.4917C65.4346 12.5425 65.4785 12.6055 65.5098 12.6807C65.541 12.7559 65.5566 12.8428 65.5566 12.9414C65.5566 12.9824 65.5503 13.0249 65.5376 13.0688C65.5249 13.1128 65.5054 13.1553 65.479 13.1963C65.4526 13.2383 65.4185 13.2778 65.3765 13.3149C65.3354 13.3511 65.2861 13.3813 65.2285 13.4058C65.2979 13.4282 65.3555 13.4575 65.4014 13.4937C65.4482 13.5298 65.4858 13.5703 65.5142 13.6152C65.5415 13.6602 65.5605 13.7075 65.5713 13.7573C65.583 13.8071 65.5889 13.8564 65.5889 13.9053C65.5889 14.0049 65.5718 14.0933 65.5376 14.1704C65.5034 14.2476 65.4561 14.3125 65.3955 14.3652C65.335 14.4189 65.2632 14.46 65.1802 14.4883C65.0981 14.5156 65.0093 14.5293 64.9136 14.5293C64.8198 14.5293 64.7314 14.5161 64.6484 14.4897C64.5664 14.4634 64.4951 14.4248 64.4346 14.374C64.374 14.3232 64.3257 14.2612 64.2896 14.188C64.2544 14.1147 64.2368 14.0312 64.2368 13.9375H64.5078C64.5078 13.9932 64.5171 14.0439 64.5356 14.0898C64.5552 14.1357 64.5825 14.1748 64.6177 14.207C64.6528 14.2393 64.6953 14.2642 64.7451 14.2817C64.7959 14.2993 64.8521 14.3081 64.9136 14.3081C64.9751 14.3081 65.0308 14.3003 65.0806 14.2847C65.1304 14.2681 65.1729 14.2432 65.208 14.21C65.2432 14.1768 65.27 14.1357 65.2886 14.0869C65.3081 14.0371 65.3179 13.9785 65.3179 13.9111C65.3179 13.8447 65.3066 13.7876 65.2842 13.7397C65.2627 13.6909 65.2324 13.6504 65.1934 13.6182C65.1533 13.5859 65.105 13.562 65.0483 13.5464C64.9927 13.5308 64.9312 13.5229 64.8638 13.5229H64.6704V13.3032ZM65.6621 18.5H64.2646V18.3052L64.9634 17.5288C65.0259 17.4595 65.0781 17.3979 65.1201 17.3442C65.1621 17.2905 65.1958 17.2407 65.2212 17.1948C65.2466 17.1499 65.2646 17.1074 65.2754 17.0674C65.2861 17.0264 65.2915 16.9844 65.2915 16.9414C65.2915 16.8887 65.2827 16.8394 65.2651 16.7935C65.2485 16.7466 65.2241 16.7061 65.1919 16.6719C65.1587 16.6377 65.1187 16.6108 65.0718 16.5913C65.0259 16.5708 64.9736 16.5605 64.915 16.5605C64.8438 16.5605 64.7817 16.5708 64.729 16.5913C64.6772 16.6118 64.6343 16.6406 64.6001 16.6777C64.5649 16.7158 64.5386 16.7617 64.521 16.8154C64.5044 16.8691 64.4961 16.9292 64.4961 16.9956H64.2236C64.2236 16.9058 64.2393 16.8213 64.2705 16.7422C64.3018 16.6621 64.3472 16.5923 64.4067 16.5327C64.4653 16.4731 64.5371 16.4258 64.6221 16.3906C64.708 16.3555 64.8057 16.3379 64.915 16.3379C65.0156 16.3379 65.106 16.353 65.186 16.3833C65.2671 16.4126 65.3354 16.4536 65.3911 16.5063C65.4468 16.5591 65.4893 16.6216 65.5186 16.6938C65.5488 16.7661 65.564 16.8447 65.564 16.9297C65.564 16.9932 65.5532 17.0562 65.5317 17.1187C65.5103 17.1802 65.4814 17.2412 65.4453 17.3018C65.4082 17.3623 65.3652 17.4224 65.3164 17.4819C65.2686 17.5405 65.2178 17.5991 65.1641 17.6577L64.5913 18.2788H65.6621V18.5ZM65.2329 22.5H64.9619V20.7129L64.4038 20.9253V20.6777L65.2109 20.3672H65.2329V22.5ZM64.7656 24.9238C64.7646 24.9951 64.751 25.062 64.7246 25.1245C64.6982 25.186 64.6616 25.2402 64.6147 25.2871C64.5923 25.3096 64.5674 25.3306 64.54 25.3501C64.5127 25.3696 64.4834 25.3872 64.4521 25.4028C64.5068 25.4263 64.5562 25.4556 64.6001 25.4907C64.645 25.5249 64.6836 25.5645 64.7158 25.6094C64.7471 25.6543 64.771 25.7031 64.7876 25.7559C64.8052 25.8086 64.814 25.8647 64.814 25.9243C64.814 26.021 64.7959 26.1069 64.7598 26.1821C64.7246 26.2573 64.6768 26.3203 64.6162 26.3711C64.5547 26.4229 64.4829 26.4624 64.4009 26.4897C64.3188 26.5161 64.231 26.5293 64.1372 26.5293C64.0415 26.5293 63.9521 26.5161 63.8691 26.4897C63.7871 26.4634 63.7158 26.4243 63.6553 26.3726C63.5938 26.3218 63.5454 26.2588 63.5103 26.1836C63.4751 26.1084 63.4575 26.022 63.4575 25.9243C63.4575 25.8647 63.4658 25.8086 63.4824 25.7559C63.499 25.7021 63.5229 25.6528 63.5542 25.6079C63.5854 25.564 63.623 25.5244 63.667 25.4893C63.7109 25.4541 63.7603 25.4248 63.8149 25.4014C63.7681 25.3779 63.7256 25.3501 63.6875 25.3179C63.6494 25.2847 63.6172 25.2476 63.5908 25.2065C63.5645 25.1665 63.5439 25.1226 63.5293 25.0747C63.5146 25.0269 63.5073 24.9766 63.5073 24.9238C63.5073 24.8311 63.5229 24.7485 63.5542 24.6763C63.5854 24.603 63.6289 24.5415 63.6846 24.4917C63.7393 24.4419 63.8047 24.4038 63.8809 24.3774C63.958 24.3511 64.042 24.3379 64.1328 24.3379C64.2227 24.3379 64.3062 24.3511 64.3833 24.3774C64.4604 24.4038 64.5273 24.4419 64.584 24.4917C64.6406 24.5415 64.6851 24.603 64.7173 24.6763C64.7495 24.7485 64.7656 24.8311 64.7656 24.9238ZM64.543 25.9185C64.543 25.8589 64.5327 25.8042 64.5122 25.7544C64.4927 25.7046 64.4648 25.6616 64.4287 25.6255C64.3926 25.5903 64.3491 25.563 64.2983 25.5435C64.2485 25.5239 64.1938 25.5142 64.1343 25.5142C64.0728 25.5142 64.0171 25.5239 63.9673 25.5435C63.9175 25.563 63.875 25.5903 63.8398 25.6255C63.8047 25.6616 63.7773 25.7046 63.7578 25.7544C63.7393 25.8042 63.73 25.8589 63.73 25.9185C63.73 25.98 63.7393 26.0352 63.7578 26.084C63.7773 26.1318 63.8047 26.1724 63.8398 26.2056C63.875 26.2388 63.9175 26.2642 63.9673 26.2817C64.0181 26.2993 64.0747 26.3081 64.1372 26.3081C64.1968 26.3081 64.2515 26.2993 64.3013 26.2817C64.3511 26.2642 64.394 26.2388 64.4302 26.2056C64.4653 26.1724 64.4927 26.1318 64.5122 26.084C64.5327 26.0352 64.543 25.98 64.543 25.9185ZM64.4932 24.9282C64.4932 24.8745 64.4839 24.8252 64.4653 24.7803C64.4478 24.7354 64.4233 24.6963 64.3921 24.6631C64.3599 24.6309 64.3218 24.606 64.2778 24.5884C64.2339 24.5698 64.1855 24.5605 64.1328 24.5605C64.0801 24.5605 64.0322 24.5693 63.9893 24.5869C63.9463 24.6035 63.9092 24.6279 63.8779 24.6602C63.8467 24.6924 63.8223 24.7314 63.8047 24.7773C63.7881 24.8223 63.7798 24.8726 63.7798 24.9282C63.7798 24.9839 63.7881 25.0342 63.8047 25.0791C63.8223 25.123 63.8472 25.1606 63.8794 25.1919C63.9106 25.2241 63.9478 25.249 63.9907 25.2666C64.0347 25.2832 64.083 25.2915 64.1357 25.2915C64.1875 25.2915 64.2354 25.2832 64.2793 25.2666C64.3232 25.249 64.3613 25.2241 64.3936 25.1919C64.4248 25.1606 64.4492 25.1226 64.4668 25.0776C64.4844 25.0327 64.4932 24.9829 64.4932 24.9282ZM66.1338 26.5H65.8628V24.7129L65.3047 24.9253V24.6777L66.1118 24.3672H66.1338V26.5ZM65.6621 30.5H64.2646V30.3052L64.9634 29.5288C65.0259 29.4595 65.0781 29.3979 65.1201 29.3442C65.1621 29.2905 65.1958 29.2407 65.2212 29.1948C65.2466 29.1499 65.2646 29.1074 65.2754 29.0674C65.2861 29.0264 65.2915 28.9844 65.2915 28.9414C65.2915 28.8887 65.2827 28.8394 65.2651 28.7935C65.2485 28.7466 65.2241 28.7061 65.1919 28.6719C65.1587 28.6377 65.1187 28.6108 65.0718 28.5913C65.0259 28.5708 64.9736 28.5605 64.915 28.5605C64.8438 28.5605 64.7817 28.5708 64.729 28.5913C64.6772 28.6118 64.6343 28.6406 64.6001 28.6777C64.5649 28.7158 64.5386 28.7617 64.521 28.8154C64.5044 28.8691 64.4961 28.9292 64.4961 28.9956H64.2236C64.2236 28.9058 64.2393 28.8213 64.2705 28.7422C64.3018 28.6621 64.3472 28.5923 64.4067 28.5327C64.4653 28.4731 64.5371 28.4258 64.6221 28.3906C64.708 28.3555 64.8057 28.3379 64.915 28.3379C65.0156 28.3379 65.106 28.353 65.186 28.3833C65.2671 28.4126 65.3354 28.4536 65.3911 28.5063C65.4468 28.5591 65.4893 28.6216 65.5186 28.6938C65.5488 28.7661 65.564 28.8447 65.564 28.9297C65.564 28.9932 65.5532 29.0562 65.5317 29.1187C65.5103 29.1802 65.4814 29.2412 65.4453 29.3018C65.4082 29.3623 65.3652 29.4224 65.3164 29.4819C65.2686 29.5405 65.2178 29.5991 65.1641 29.6577L64.5913 30.2788H65.6621V30.5ZM64.6704 33.3032H64.8638C64.9321 33.3032 64.9922 33.2939 65.0439 33.2754C65.0967 33.2568 65.1411 33.2314 65.1772 33.1992C65.2124 33.167 65.2393 33.1284 65.2578 33.0835C65.2764 33.0386 65.2856 32.9893 65.2856 32.9355C65.2856 32.8721 65.2773 32.8169 65.2607 32.77C65.2441 32.7222 65.2197 32.6826 65.1875 32.6514C65.1562 32.6211 65.1172 32.5986 65.0703 32.584C65.0244 32.5684 64.9717 32.5605 64.9121 32.5605C64.8545 32.5605 64.8018 32.5693 64.7539 32.5869C64.707 32.6035 64.667 32.6279 64.6338 32.6602C64.5996 32.6924 64.5732 32.731 64.5547 32.7759C64.5361 32.8208 64.5269 32.8711 64.5269 32.9268H64.2544C64.2544 32.8457 64.27 32.7695 64.3013 32.6982C64.3335 32.626 64.3784 32.563 64.436 32.5093C64.4937 32.4565 64.5625 32.415 64.6426 32.3848C64.7236 32.3535 64.8135 32.3379 64.9121 32.3379C65.0078 32.3379 65.0952 32.3511 65.1743 32.3774C65.2534 32.4028 65.3213 32.4409 65.3779 32.4917C65.4346 32.5425 65.4785 32.6055 65.5098 32.6807C65.541 32.7559 65.5566 32.8428 65.5566 32.9414C65.5566 32.9824 65.5503 33.0249 65.5376 33.0688C65.5249 33.1128 65.5054 33.1553 65.479 33.1963C65.4526 33.2383 65.4185 33.2778 65.3765 33.3149C65.3354 33.3511 65.2861 33.3813 65.2285 33.4058C65.2979 33.4282 65.3555 33.4575 65.4014 33.4937C65.4482 33.5298 65.4858 33.5703 65.5142 33.6152C65.5415 33.6602 65.5605 33.7075 65.5713 33.7573C65.583 33.8071 65.5889 33.8564 65.5889 33.9053C65.5889 34.0049 65.5718 34.0933 65.5376 34.1704C65.5034 34.2476 65.4561 34.3125 65.3955 34.3652C65.335 34.4189 65.2632 34.46 65.1802 34.4883C65.0981 34.5156 65.0093 34.5293 64.9136 34.5293C64.8198 34.5293 64.7314 34.5161 64.6484 34.4897C64.5664 34.4634 64.4951 34.4248 64.4346 34.374C64.374 34.3232 64.3257 34.2612 64.2896 34.188C64.2544 34.1147 64.2368 34.0312 64.2368 33.9375H64.5078C64.5078 33.9932 64.5171 34.0439 64.5356 34.0898C64.5552 34.1357 64.5825 34.1748 64.6177 34.207C64.6528 34.2393 64.6953 34.2642 64.7451 34.2817C64.7959 34.2993 64.8521 34.3081 64.9136 34.3081C64.9751 34.3081 65.0308 34.3003 65.0806 34.2847C65.1304 34.2681 65.1729 34.2432 65.208 34.21C65.2432 34.1768 65.27 34.1357 65.2886 34.0869C65.3081 34.0371 65.3179 33.9785 65.3179 33.9111C65.3179 33.8447 65.3066 33.7876 65.2842 33.7397C65.2627 33.6909 65.2324 33.6504 65.1934 33.6182C65.1533 33.5859 65.105 33.562 65.0483 33.5464C64.9927 33.5308 64.9312 33.5229 64.8638 33.5229H64.6704V33.3032ZM65.4526 37.7837H65.75V38.0049H65.4526V38.5H65.1816V38.0049H64.209V37.8452L65.1641 36.3672H65.4526V37.7837ZM64.5093 37.7837H65.1816V36.7275L65.1377 36.8096L64.5093 37.7837ZM64.4507 41.4307L64.5576 40.3672H65.6519V40.6309H64.7861L64.7261 41.1992C64.7681 41.1748 64.8184 41.1533 64.877 41.1348C64.9355 41.1162 65.0034 41.1069 65.0806 41.1069C65.1792 41.1069 65.2676 41.124 65.3457 41.1582C65.4238 41.1924 65.4902 41.2402 65.5449 41.3018C65.5996 41.3643 65.6416 41.4395 65.6709 41.5273C65.7002 41.6152 65.7148 41.7129 65.7148 41.8203C65.7148 41.9219 65.7012 42.0161 65.6738 42.103C65.6465 42.1899 65.6055 42.2646 65.5508 42.3271C65.4951 42.3906 65.4253 42.4404 65.3413 42.4766C65.2573 42.5117 65.1587 42.5293 65.0454 42.5293C64.9585 42.5293 64.8765 42.5171 64.7993 42.4927C64.7222 42.4683 64.6538 42.4316 64.5942 42.3828C64.5337 42.334 64.4839 42.2725 64.4448 42.1982C64.4067 42.124 64.3828 42.0376 64.373 41.939H64.6309C64.6475 42.0601 64.6919 42.1519 64.7642 42.2144C64.8374 42.2769 64.9312 42.3081 65.0454 42.3081C65.1099 42.3081 65.167 42.2969 65.2168 42.2744C65.2666 42.251 65.3086 42.2178 65.3428 42.1748C65.376 42.1328 65.4009 42.082 65.4175 42.0225C65.4351 41.9629 65.4438 41.8965 65.4438 41.8232C65.4438 41.7568 65.4341 41.6948 65.4146 41.6372C65.396 41.5796 65.3687 41.5293 65.3325 41.4863C65.2964 41.4443 65.252 41.4111 65.1992 41.3867C65.1465 41.3623 65.0859 41.3501 65.0176 41.3501C64.9727 41.3501 64.9336 41.3535 64.9004 41.3604C64.8682 41.3662 64.8389 41.375 64.8125 41.3867C64.7861 41.3984 64.7612 41.4126 64.7378 41.4292C64.7153 41.4458 64.6919 41.4648 64.6675 41.4863L64.4507 41.4307ZM65.353 44.3657V44.6089H65.3296C65.2007 44.6089 65.0913 44.6274 65.0015 44.6646C64.9116 44.7007 64.8374 44.7495 64.7788 44.811C64.7173 44.8755 64.6704 44.9521 64.6382 45.041C64.6069 45.1299 64.5884 45.2212 64.5825 45.3149C64.6079 45.2847 64.6372 45.2568 64.6704 45.2314C64.7036 45.2051 64.7397 45.1821 64.7788 45.1626C64.8169 45.144 64.8579 45.1294 64.9019 45.1187C64.9468 45.1069 64.9937 45.1011 65.0425 45.1011C65.1489 45.1011 65.2407 45.1216 65.3179 45.1626C65.395 45.2026 65.4585 45.2559 65.5083 45.3223C65.5581 45.3887 65.5947 45.4639 65.6182 45.5479C65.6416 45.6318 65.6533 45.7173 65.6533 45.8042C65.6533 45.9038 65.6392 45.9976 65.6108 46.0854C65.5835 46.1733 65.542 46.25 65.4863 46.3154C65.4307 46.3818 65.3613 46.4341 65.2783 46.4722C65.1963 46.5103 65.1011 46.5293 64.9927 46.5293C64.8833 46.5293 64.7871 46.5073 64.7041 46.4634C64.6211 46.4194 64.5513 46.3623 64.4946 46.292C64.4312 46.2148 64.3838 46.125 64.3525 46.0225C64.3213 45.9189 64.3057 45.8154 64.3057 45.7119V45.5845C64.3057 45.4067 64.3267 45.2319 64.3687 45.0601C64.4106 44.8882 64.4927 44.7412 64.6147 44.6191C64.6987 44.5352 64.8008 44.4722 64.9209 44.4302C65.041 44.3872 65.1772 44.3657 65.3296 44.3657H65.353ZM64.9985 45.3267C64.9526 45.3267 64.9082 45.334 64.8652 45.3486C64.8223 45.3633 64.7822 45.3838 64.7451 45.4102C64.708 45.4365 64.6753 45.4683 64.647 45.5054C64.6187 45.5425 64.5962 45.5835 64.5796 45.6284V45.7192C64.5796 45.813 64.5908 45.8965 64.6133 45.9697C64.6357 46.042 64.666 46.103 64.7041 46.1528C64.7422 46.2026 64.7861 46.2407 64.8359 46.2671C64.8857 46.2925 64.938 46.3052 64.9927 46.3052C65.0562 46.3052 65.1123 46.293 65.1611 46.2686C65.21 46.2441 65.2515 46.2104 65.2856 46.1675C65.3188 46.1245 65.3438 46.0732 65.3604 46.0137C65.3779 45.9531 65.3867 45.8877 65.3867 45.8174C65.3867 45.7549 65.3789 45.6943 65.3633 45.6357C65.3477 45.5762 65.3237 45.5234 65.2915 45.4775C65.2593 45.4316 65.2188 45.395 65.1699 45.3677C65.1211 45.3403 65.064 45.3267 64.9985 45.3267ZM65.7046 48.5195L64.8213 50.5H64.5371L65.4175 48.6045H64.2632V48.3672H65.7046V48.5195ZM65.6665 52.9238C65.6655 52.9951 65.6519 53.062 65.6255 53.1245C65.5991 53.186 65.5625 53.2402 65.5156 53.2871C65.4932 53.3096 65.4683 53.3306 65.4409 53.3501C65.4136 53.3696 65.3843 53.3872 65.353 53.4028C65.4077 53.4263 65.457 53.4556 65.501 53.4907C65.5459 53.5249 65.5845 53.5645 65.6167 53.6094C65.6479 53.6543 65.6719 53.7031 65.6885 53.7559C65.7061 53.8086 65.7148 53.8647 65.7148 53.9243C65.7148 54.021 65.6968 54.1069 65.6606 54.1821C65.6255 54.2573 65.5776 54.3203 65.5171 54.3711C65.4556 54.4229 65.3838 54.4624 65.3018 54.4897C65.2197 54.5161 65.1318 54.5293 65.0381 54.5293C64.9424 54.5293 64.853 54.5161 64.77 54.4897C64.688 54.4634 64.6167 54.4243 64.5562 54.3726C64.4946 54.3218 64.4463 54.2588 64.4111 54.1836C64.376 54.1084 64.3584 54.022 64.3584 53.9243C64.3584 53.8647 64.3667 53.8086 64.3833 53.7559C64.3999 53.7021 64.4238 53.6528 64.4551 53.6079C64.4863 53.564 64.5239 53.5244 64.5679 53.4893C64.6118 53.4541 64.6611 53.4248 64.7158 53.4014C64.6689 53.3779 64.6265 53.3501 64.5884 53.3179C64.5503 53.2847 64.5181 53.2476 64.4917 53.2065C64.4653 53.1665 64.4448 53.1226 64.4302 53.0747C64.4155 53.0269 64.4082 52.9766 64.4082 52.9238C64.4082 52.8311 64.4238 52.7485 64.4551 52.6763C64.4863 52.603 64.5298 52.5415 64.5854 52.4917C64.6401 52.4419 64.7056 52.4038 64.7817 52.3774C64.8589 52.3511 64.9429 52.3379 65.0337 52.3379C65.1235 52.3379 65.207 52.3511 65.2842 52.3774C65.3613 52.4038 65.4282 52.4419 65.4849 52.4917C65.5415 52.5415 65.5859 52.603 65.6182 52.6763C65.6504 52.7485 65.6665 52.8311 65.6665 52.9238ZM65.4438 53.9185C65.4438 53.8589 65.4336 53.8042 65.4131 53.7544C65.3936 53.7046 65.3657 53.6616 65.3296 53.6255C65.2935 53.5903 65.25 53.563 65.1992 53.5435C65.1494 53.5239 65.0947 53.5142 65.0352 53.5142C64.9736 53.5142 64.918 53.5239 64.8682 53.5435C64.8184 53.563 64.7759 53.5903 64.7407 53.6255C64.7056 53.6616 64.6782 53.7046 64.6587 53.7544C64.6401 53.8042 64.6309 53.8589 64.6309 53.9185C64.6309 53.98 64.6401 54.0352 64.6587 54.084C64.6782 54.1318 64.7056 54.1724 64.7407 54.2056C64.7759 54.2388 64.8184 54.2642 64.8682 54.2817C64.9189 54.2993 64.9756 54.3081 65.0381 54.3081C65.0977 54.3081 65.1523 54.2993 65.2021 54.2817C65.252 54.2642 65.2949 54.2388 65.3311 54.2056C65.3662 54.1724 65.3936 54.1318 65.4131 54.084C65.4336 54.0352 65.4438 53.98 65.4438 53.9185ZM65.394 52.9282C65.394 52.8745 65.3848 52.8252 65.3662 52.7803C65.3486 52.7354 65.3242 52.6963 65.293 52.6631C65.2607 52.6309 65.2227 52.606 65.1787 52.5884C65.1348 52.5698 65.0864 52.5605 65.0337 52.5605C64.981 52.5605 64.9331 52.5693 64.8901 52.5869C64.8472 52.6035 64.8101 52.6279 64.7788 52.6602C64.7476 52.6924 64.7231 52.7314 64.7056 52.7773C64.689 52.8223 64.6807 52.8726 64.6807 52.9282C64.6807 52.9839 64.689 53.0342 64.7056 53.0791C64.7231 53.123 64.748 53.1606 64.7803 53.1919C64.8115 53.2241 64.8486 53.249 64.8916 53.2666C64.9355 53.2832 64.9839 53.2915 65.0366 53.2915C65.0884 53.2915 65.1362 53.2832 65.1802 53.2666C65.2241 53.249 65.2622 53.2241 65.2944 53.1919C65.3257 53.1606 65.3501 53.1226 65.3677 53.0776C65.3853 53.0327 65.394 52.9829 65.394 52.9282ZM64.6455 58.2598C64.7822 58.2598 64.896 58.2437 64.9868 58.2114C65.0786 58.1782 65.1523 58.1318 65.208 58.0723C65.2754 57.999 65.3208 57.9204 65.3442 57.8364C65.3677 57.7524 65.3818 57.6655 65.3867 57.5757V57.5728C65.3633 57.6021 65.3364 57.6299 65.3062 57.6562C65.2759 57.6816 65.2417 57.7041 65.2036 57.7236C65.1655 57.7432 65.123 57.7588 65.0762 57.7705C65.0303 57.7812 64.98 57.7866 64.9253 57.7866C64.8198 57.7866 64.7285 57.7661 64.6514 57.7251C64.5752 57.6831 64.5122 57.6284 64.4624 57.561C64.4126 57.4937 64.376 57.4175 64.3525 57.3325C64.3291 57.2476 64.3174 57.1621 64.3174 57.0762C64.3174 56.9756 64.3311 56.8809 64.3584 56.792C64.3867 56.7021 64.4287 56.6235 64.4844 56.5562C64.5391 56.4897 64.6074 56.437 64.6895 56.3979C64.7725 56.3579 64.8687 56.3379 64.978 56.3379C65.0874 56.3379 65.1821 56.3584 65.2622 56.3994C65.3433 56.4395 65.4111 56.4927 65.4658 56.5591C65.5303 56.6372 65.5786 56.7349 65.6108 56.8521C65.6431 56.9683 65.6592 57.0845 65.6592 57.2007V57.2988C65.6592 57.4639 65.6416 57.6299 65.6064 57.7969C65.5713 57.9629 65.4961 58.1104 65.3809 58.2393C65.3115 58.3174 65.2153 58.3809 65.0923 58.4297C64.9702 58.4775 64.8213 58.5015 64.6455 58.5015H64.6177V58.2598H64.6455ZM64.9692 57.5625C65.0151 57.5625 65.0596 57.5552 65.1025 57.5405C65.1465 57.5249 65.187 57.5029 65.2241 57.4746C65.2603 57.4473 65.2925 57.415 65.3208 57.3779C65.3501 57.3398 65.373 57.2979 65.3896 57.252V57.1641C65.3896 57.0693 65.3784 56.9849 65.356 56.9106C65.3345 56.8364 65.3052 56.7734 65.2681 56.7217C65.23 56.6709 65.186 56.6318 65.1362 56.6045C65.0874 56.5771 65.0352 56.5635 64.9795 56.5635C64.916 56.5635 64.8599 56.5762 64.811 56.6016C64.7622 56.627 64.7212 56.6616 64.688 56.7056C64.6538 56.7505 64.6279 56.8037 64.6104 56.8652C64.5928 56.9258 64.584 56.9912 64.584 57.0615C64.584 57.124 64.5918 57.1855 64.6074 57.2461C64.623 57.3057 64.647 57.3589 64.6792 57.4058C64.7104 57.4526 64.75 57.4907 64.7979 57.52C64.8467 57.5483 64.9038 57.5625 64.9692 57.5625ZM64.332 62.5H64.061V60.7129L63.5029 60.9253V60.6777L64.3101 60.3672H64.332V62.5ZM66.5938 61.6841C66.5938 61.8198 66.5781 61.9404 66.5469 62.0459C66.5156 62.1504 66.4707 62.2383 66.4121 62.3096C66.3535 62.3818 66.2817 62.4365 66.1968 62.4736C66.1118 62.5107 66.0146 62.5293 65.9053 62.5293C65.7969 62.5293 65.6997 62.5112 65.6138 62.4751C65.5278 62.438 65.4551 62.3828 65.3955 62.3096C65.3359 62.2383 65.2905 62.1504 65.2593 62.0459C65.228 61.9404 65.2124 61.8198 65.2124 61.6841V61.1846C65.2124 61.0488 65.228 60.9287 65.2593 60.8242C65.2905 60.7188 65.3359 60.6299 65.3955 60.5576C65.4541 60.4854 65.5259 60.4307 65.6108 60.3936C65.6968 60.3555 65.7939 60.3364 65.9023 60.3364C66.0117 60.3364 66.1089 60.3555 66.1938 60.3936C66.2798 60.4307 66.3525 60.4854 66.4121 60.5576C66.4707 60.6299 66.5156 60.7188 66.5469 60.8242C66.5781 60.9287 66.5938 61.0488 66.5938 61.1846V61.6841ZM65.4849 61.6299L66.3154 60.9927C66.3076 60.9224 66.2935 60.8604 66.2729 60.8066C66.2534 60.752 66.2266 60.7065 66.1924 60.6704C66.1592 60.6333 66.1182 60.6055 66.0693 60.5869C66.0215 60.5684 65.9658 60.5591 65.9023 60.5591C65.8379 60.5591 65.7808 60.5693 65.731 60.5898C65.6821 60.6094 65.6406 60.6382 65.6064 60.6763C65.5654 60.7241 65.5347 60.7861 65.5142 60.8623C65.4946 60.9375 65.4849 61.0249 65.4849 61.1245V61.4819C65.4849 61.5063 65.4849 61.5308 65.4849 61.5552C65.4849 61.5796 65.4849 61.6045 65.4849 61.6299ZM66.3213 61.7412V61.4395C66.3213 61.4248 66.3213 61.397 66.3213 61.356C66.3213 61.314 66.3213 61.2793 66.3213 61.252L65.4922 61.8862C65.501 61.9575 65.5166 62.0205 65.5391 62.0752C65.5615 62.1289 65.5908 62.1733 65.627 62.2085C65.6602 62.2417 65.7002 62.2671 65.7471 62.2847C65.7939 62.3013 65.8467 62.3096 65.9053 62.3096C65.9668 62.3096 66.0215 62.3003 66.0693 62.2817C66.1172 62.2632 66.1577 62.2363 66.1909 62.2012C66.2358 62.1533 66.2686 62.0908 66.2891 62.0137C66.3105 61.9365 66.3213 61.8457 66.3213 61.7412ZM64.332 66.5H64.061V64.7129L63.5029 64.9253V64.6777L64.3101 64.3672H64.332V66.5ZM66.1338 66.5H65.8628V64.7129L65.3047 64.9253V64.6777L66.1118 64.3672H66.1338V66.5ZM64.332 70.5H64.061V68.7129L63.5029 68.9253V68.6777L64.3101 68.3672H64.332V70.5ZM66.563 70.5H65.1655V70.3052L65.8643 69.5288C65.9268 69.4595 65.979 69.3979 66.021 69.3442C66.063 69.2905 66.0967 69.2407 66.1221 69.1948C66.1475 69.1499 66.1655 69.1074 66.1763 69.0674C66.187 69.0264 66.1924 68.9844 66.1924 68.9414C66.1924 68.8887 66.1836 68.8394 66.166 68.7935C66.1494 68.7466 66.125 68.7061 66.0928 68.6719C66.0596 68.6377 66.0195 68.6108 65.9727 68.5913C65.9268 68.5708 65.8745 68.5605 65.8159 68.5605C65.7446 68.5605 65.6826 68.5708 65.6299 68.5913C65.5781 68.6118 65.5352 68.6406 65.501 68.6777C65.4658 68.7158 65.4395 68.7617 65.4219 68.8154C65.4053 68.8691 65.397 68.9292 65.397 68.9956H65.1245C65.1245 68.9058 65.1401 68.8213 65.1714 68.7422C65.2026 68.6621 65.248 68.5923 65.3076 68.5327C65.3662 68.4731 65.438 68.4258 65.5229 68.3906C65.6089 68.3555 65.7065 68.3379 65.8159 68.3379C65.9165 68.3379 66.0068 68.353 66.0869 68.3833C66.168 68.4126 66.2363 68.4536 66.292 68.5063C66.3477 68.5591 66.3901 68.6216 66.4194 68.6938C66.4497 68.7661 66.4648 68.8447 66.4648 68.9297C66.4648 68.9932 66.4541 69.0562 66.4326 69.1187C66.4111 69.1802 66.3823 69.2412 66.3462 69.3018C66.3091 69.3623 66.2661 69.4224 66.2173 69.4819C66.1694 69.5405 66.1187 69.5991 66.0649 69.6577L65.4922 70.2788H66.563V70.5ZM64.332 74.5H64.061V72.7129L63.5029 72.9253V72.6777L64.3101 72.3672H64.332V74.5ZM65.5713 73.3032H65.7646C65.833 73.3032 65.8931 73.2939 65.9448 73.2754C65.9976 73.2568 66.042 73.2314 66.0781 73.1992C66.1133 73.167 66.1401 73.1284 66.1587 73.0835C66.1772 73.0386 66.1865 72.9893 66.1865 72.9355C66.1865 72.8721 66.1782 72.8169 66.1616 72.77C66.145 72.7222 66.1206 72.6826 66.0884 72.6514C66.0571 72.6211 66.0181 72.5986 65.9712 72.584C65.9253 72.5684 65.8726 72.5605 65.813 72.5605C65.7554 72.5605 65.7026 72.5693 65.6548 72.5869C65.6079 72.6035 65.5679 72.6279 65.5347 72.6602C65.5005 72.6924 65.4741 72.731 65.4556 72.7759C65.437 72.8208 65.4277 72.8711 65.4277 72.9268H65.1553C65.1553 72.8457 65.1709 72.7695 65.2021 72.6982C65.2344 72.626 65.2793 72.563 65.3369 72.5093C65.3945 72.4565 65.4634 72.415 65.5435 72.3848C65.6245 72.3535 65.7144 72.3379 65.813 72.3379C65.9087 72.3379 65.9961 72.3511 66.0752 72.3774C66.1543 72.4028 66.2222 72.4409 66.2788 72.4917C66.3354 72.5425 66.3794 72.6055 66.4106 72.6807C66.4419 72.7559 66.4575 72.8428 66.4575 72.9414C66.4575 72.9824 66.4512 73.0249 66.4385 73.0688C66.4258 73.1128 66.4062 73.1553 66.3799 73.1963C66.3535 73.2383 66.3193 73.2778 66.2773 73.3149C66.2363 73.3511 66.187 73.3813 66.1294 73.4058C66.1987 73.4282 66.2563 73.4575 66.3022 73.4937C66.3491 73.5298 66.3867 73.5703 66.415 73.6152C66.4424 73.6602 66.4614 73.7075 66.4722 73.7573C66.4839 73.8071 66.4897 73.8564 66.4897 73.9053C66.4897 74.0049 66.4727 74.0933 66.4385 74.1704C66.4043 74.2476 66.3569 74.3125 66.2964 74.3652C66.2358 74.4189 66.1641 74.46 66.0811 74.4883C65.999 74.5156 65.9102 74.5293 65.8145 74.5293C65.7207 74.5293 65.6323 74.5161 65.5493 74.4897C65.4673 74.4634 65.396 74.4248 65.3354 74.374C65.2749 74.3232 65.2266 74.2612 65.1904 74.188C65.1553 74.1147 65.1377 74.0312 65.1377 73.9375H65.4087C65.4087 73.9932 65.418 74.0439 65.4365 74.0898C65.4561 74.1357 65.4834 74.1748 65.5186 74.207C65.5537 74.2393 65.5962 74.2642 65.646 74.2817C65.6968 74.2993 65.7529 74.3081 65.8145 74.3081C65.876 74.3081 65.9316 74.3003 65.9814 74.2847C66.0312 74.2681 66.0737 74.2432 66.1089 74.21C66.144 74.1768 66.1709 74.1357 66.1895 74.0869C66.209 74.0371 66.2188 73.9785 66.2188 73.9111C66.2188 73.8447 66.2075 73.7876 66.1851 73.7397C66.1636 73.6909 66.1333 73.6504 66.0942 73.6182C66.0542 73.5859 66.0059 73.562 65.9492 73.5464C65.8936 73.5308 65.832 73.5229 65.7646 73.5229H65.5713V73.3032ZM64.332 78.5H64.061V76.7129L63.5029 76.9253V76.6777L64.3101 76.3672H64.332V78.5ZM66.3535 77.7837H66.6509V78.0049H66.3535V78.5H66.0825V78.0049H65.1099V77.8452L66.0649 76.3672H66.3535V77.7837ZM65.4102 77.7837H66.0825V76.7275L66.0386 76.8096L65.4102 77.7837ZM64.332 82.5H64.061V80.7129L63.5029 80.9253V80.6777L64.3101 80.3672H64.332V82.5ZM65.3516 81.4307L65.4585 80.3672H66.5527V80.6309H65.687L65.627 81.1992C65.6689 81.1748 65.7192 81.1533 65.7778 81.1348C65.8364 81.1162 65.9043 81.1069 65.9814 81.1069C66.0801 81.1069 66.1685 81.124 66.2466 81.1582C66.3247 81.1924 66.3911 81.2402 66.4458 81.3018C66.5005 81.3643 66.5425 81.4395 66.5718 81.5273C66.6011 81.6152 66.6157 81.7129 66.6157 81.8203C66.6157 81.9219 66.6021 82.0161 66.5747 82.103C66.5474 82.1899 66.5063 82.2646 66.4517 82.3271C66.396 82.3906 66.3262 82.4404 66.2422 82.4766C66.1582 82.5117 66.0596 82.5293 65.9463 82.5293C65.8594 82.5293 65.7773 82.5171 65.7002 82.4927C65.623 82.4683 65.5547 82.4316 65.4951 82.3828C65.4346 82.334 65.3848 82.2725 65.3457 82.1982C65.3076 82.124 65.2837 82.0376 65.2739 81.939H65.5317C65.5483 82.0601 65.5928 82.1519 65.665 82.2144C65.7383 82.2769 65.832 82.3081 65.9463 82.3081C66.0107 82.3081 66.0679 82.2969 66.1177 82.2744C66.1675 82.251 66.2095 82.2178 66.2437 82.1748C66.2769 82.1328 66.3018 82.082 66.3184 82.0225C66.3359 81.9629 66.3447 81.8965 66.3447 81.8232C66.3447 81.7568 66.335 81.6948 66.3154 81.6372C66.2969 81.5796 66.2695 81.5293 66.2334 81.4863C66.1973 81.4443 66.1528 81.4111 66.1001 81.3867C66.0474 81.3623 65.9868 81.3501 65.9185 81.3501C65.8735 81.3501 65.8345 81.3535 65.8013 81.3604C65.769 81.3662 65.7397 81.375 65.7134 81.3867C65.687 81.3984 65.6621 81.4126 65.6387 81.4292C65.6162 81.4458 65.5928 81.4648 65.5684 81.4863L65.3516 81.4307ZM64.332 86.5H64.061V84.7129L63.5029 84.9253V84.6777L64.3101 84.3672H64.332V86.5ZM66.2539 84.3657V84.6089H66.2305C66.1016 84.6089 65.9922 84.6274 65.9023 84.6646C65.8125 84.7007 65.7383 84.7495 65.6797 84.811C65.6182 84.8755 65.5713 84.9521 65.5391 85.041C65.5078 85.1299 65.4893 85.2212 65.4834 85.3149C65.5088 85.2847 65.5381 85.2568 65.5713 85.2314C65.6045 85.2051 65.6406 85.1821 65.6797 85.1626C65.7178 85.144 65.7588 85.1294 65.8027 85.1187C65.8477 85.1069 65.8945 85.1011 65.9434 85.1011C66.0498 85.1011 66.1416 85.1216 66.2188 85.1626C66.2959 85.2026 66.3594 85.2559 66.4092 85.3223C66.459 85.3887 66.4956 85.4639 66.519 85.5479C66.5425 85.6318 66.5542 85.7173 66.5542 85.8042C66.5542 85.9038 66.54 85.9976 66.5117 86.0854C66.4844 86.1733 66.4429 86.25 66.3872 86.3154C66.3315 86.3818 66.2622 86.4341 66.1792 86.4722C66.0972 86.5103 66.002 86.5293 65.8936 86.5293C65.7842 86.5293 65.688 86.5073 65.605 86.4634C65.522 86.4194 65.4521 86.3623 65.3955 86.292C65.332 86.2148 65.2847 86.125 65.2534 86.0225C65.2222 85.9189 65.2065 85.8154 65.2065 85.7119V85.5845C65.2065 85.4067 65.2275 85.2319 65.2695 85.0601C65.3115 84.8882 65.3936 84.7412 65.5156 84.6191C65.5996 84.5352 65.7017 84.4722 65.8218 84.4302C65.9419 84.3872 66.0781 84.3657 66.2305 84.3657H66.2539ZM65.8994 85.3267C65.8535 85.3267 65.8091 85.334 65.7661 85.3486C65.7231 85.3633 65.6831 85.3838 65.646 85.4102C65.6089 85.4365 65.5762 85.4683 65.5479 85.5054C65.5195 85.5425 65.4971 85.5835 65.4805 85.6284V85.7192C65.4805 85.813 65.4917 85.8965 65.5142 85.9697C65.5366 86.042 65.5669 86.103 65.605 86.1528C65.6431 86.2026 65.687 86.2407 65.7368 86.2671C65.7866 86.2925 65.8389 86.3052 65.8936 86.3052C65.957 86.3052 66.0132 86.293 66.062 86.2686C66.1108 86.2441 66.1523 86.2104 66.1865 86.1675C66.2197 86.1245 66.2446 86.0732 66.2612 86.0137C66.2788 85.9531 66.2876 85.8877 66.2876 85.8174C66.2876 85.7549 66.2798 85.6943 66.2642 85.6357C66.2485 85.5762 66.2246 85.5234 66.1924 85.4775C66.1602 85.4316 66.1196 85.395 66.0708 85.3677C66.022 85.3403 65.9648 85.3267 65.8994 85.3267ZM64.332 90.5H64.061V88.7129L63.5029 88.9253V88.6777L64.3101 88.3672H64.332V90.5ZM66.6055 88.5195L65.7222 90.5H65.438L66.3184 88.6045H65.1641V88.3672H66.6055V88.5195ZM64.332 94.5H64.061V92.7129L63.5029 92.9253V92.6777L64.3101 92.3672H64.332V94.5ZM66.5674 92.9238C66.5664 92.9951 66.5527 93.062 66.5264 93.1245C66.5 93.186 66.4634 93.2402 66.4165 93.2871C66.394 93.3096 66.3691 93.3306 66.3418 93.3501C66.3145 93.3696 66.2852 93.3872 66.2539 93.4028C66.3086 93.4263 66.3579 93.4556 66.4019 93.4907C66.4468 93.5249 66.4854 93.5645 66.5176 93.6094C66.5488 93.6543 66.5728 93.7031 66.5894 93.7559C66.6069 93.8086 66.6157 93.8647 66.6157 93.9243C66.6157 94.021 66.5977 94.1069 66.5615 94.1821C66.5264 94.2573 66.4785 94.3203 66.418 94.3711C66.3564 94.4229 66.2847 94.4624 66.2026 94.4897C66.1206 94.5161 66.0327 94.5293 65.939 94.5293C65.8433 94.5293 65.7539 94.5161 65.6709 94.4897C65.5889 94.4634 65.5176 94.4243 65.457 94.3726C65.3955 94.3218 65.3472 94.2588 65.312 94.1836C65.2769 94.1084 65.2593 94.022 65.2593 93.9243C65.2593 93.8647 65.2676 93.8086 65.2842 93.7559C65.3008 93.7021 65.3247 93.6528 65.356 93.6079C65.3872 93.564 65.4248 93.5244 65.4688 93.4893C65.5127 93.4541 65.562 93.4248 65.6167 93.4014C65.5698 93.3779 65.5273 93.3501 65.4893 93.3179C65.4512 93.2847 65.4189 93.2476 65.3926 93.2065C65.3662 93.1665 65.3457 93.1226 65.3311 93.0747C65.3164 93.0269 65.3091 92.9766 65.3091 92.9238C65.3091 92.8311 65.3247 92.7485 65.356 92.6763C65.3872 92.603 65.4307 92.5415 65.4863 92.4917C65.541 92.4419 65.6064 92.4038 65.6826 92.3774C65.7598 92.3511 65.8438 92.3379 65.9346 92.3379C66.0244 92.3379 66.1079 92.3511 66.1851 92.3774C66.2622 92.4038 66.3291 92.4419 66.3857 92.4917C66.4424 92.5415 66.4868 92.603 66.519 92.6763C66.5513 92.7485 66.5674 92.8311 66.5674 92.9238ZM66.3447 93.9185C66.3447 93.8589 66.3345 93.8042 66.314 93.7544C66.2944 93.7046 66.2666 93.6616 66.2305 93.6255C66.1943 93.5903 66.1509 93.563 66.1001 93.5435C66.0503 93.5239 65.9956 93.5142 65.936 93.5142C65.8745 93.5142 65.8188 93.5239 65.769 93.5435C65.7192 93.563 65.6768 93.5903 65.6416 93.6255C65.6064 93.6616 65.5791 93.7046 65.5596 93.7544C65.541 93.8042 65.5317 93.8589 65.5317 93.9185C65.5317 93.98 65.541 94.0352 65.5596 94.084C65.5791 94.1318 65.6064 94.1724 65.6416 94.2056C65.6768 94.2388 65.7192 94.2642 65.769 94.2817C65.8198 94.2993 65.8765 94.3081 65.939 94.3081C65.9985 94.3081 66.0532 94.2993 66.103 94.2817C66.1528 94.2642 66.1958 94.2388 66.2319 94.2056C66.2671 94.1724 66.2944 94.1318 66.314 94.084C66.3345 94.0352 66.3447 93.98 66.3447 93.9185ZM66.2949 92.9282C66.2949 92.8745 66.2856 92.8252 66.2671 92.7803C66.2495 92.7354 66.2251 92.6963 66.1938 92.6631C66.1616 92.6309 66.1235 92.606 66.0796 92.5884C66.0356 92.5698 65.9873 92.5605 65.9346 92.5605C65.8818 92.5605 65.834 92.5693 65.791 92.5869C65.748 92.6035 65.7109 92.6279 65.6797 92.6602C65.6484 92.6924 65.624 92.7314 65.6064 92.7773C65.5898 92.8223 65.5815 92.8726 65.5815 92.9282C65.5815 92.9839 65.5898 93.0342 65.6064 93.0791C65.624 93.123 65.6489 93.1606 65.6812 93.1919C65.7124 93.2241 65.7495 93.249 65.7925 93.2666C65.8364 93.2832 65.8848 93.2915 65.9375 93.2915C65.9893 93.2915 66.0371 93.2832 66.0811 93.2666C66.125 93.249 66.1631 93.2241 66.1953 93.1919C66.2266 93.1606 66.251 93.1226 66.2686 93.0776C66.2861 93.0327 66.2949 92.9829 66.2949 92.9282ZM64.332 98.5H64.061V96.7129L63.5029 96.9253V96.6777L64.3101 96.3672H64.332V98.5ZM65.5464 98.2598C65.6831 98.2598 65.7969 98.2437 65.8877 98.2114C65.9795 98.1782 66.0532 98.1318 66.1089 98.0723C66.1763 97.999 66.2217 97.9204 66.2451 97.8364C66.2686 97.7524 66.2827 97.6655 66.2876 97.5757V97.5728C66.2642 97.6021 66.2373 97.6299 66.207 97.6562C66.1768 97.6816 66.1426 97.7041 66.1045 97.7236C66.0664 97.7432 66.0239 97.7588 65.9771 97.7705C65.9312 97.7812 65.8809 97.7866 65.8262 97.7866C65.7207 97.7866 65.6294 97.7661 65.5522 97.7251C65.4761 97.6831 65.4131 97.6284 65.3633 97.561C65.3135 97.4937 65.2769 97.4175 65.2534 97.3325C65.23 97.2476 65.2183 97.1621 65.2183 97.0762C65.2183 96.9756 65.2319 96.8809 65.2593 96.792C65.2876 96.7021 65.3296 96.6235 65.3853 96.5562C65.4399 96.4897 65.5083 96.437 65.5903 96.3979C65.6733 96.3579 65.7695 96.3379 65.8789 96.3379C65.9883 96.3379 66.083 96.3584 66.1631 96.3994C66.2441 96.4395 66.312 96.4927 66.3667 96.5591C66.4312 96.6372 66.4795 96.7349 66.5117 96.8521C66.5439 96.9683 66.5601 97.0845 66.5601 97.2007V97.2988C66.5601 97.4639 66.5425 97.6299 66.5073 97.7969C66.4722 97.9629 66.397 98.1104 66.2817 98.2393C66.2124 98.3174 66.1162 98.3809 65.9932 98.4297C65.8711 98.4775 65.7222 98.5015 65.5464 98.5015H65.5186V98.2598H65.5464ZM65.8701 97.5625C65.916 97.5625 65.9604 97.5552 66.0034 97.5405C66.0474 97.5249 66.0879 97.5029 66.125 97.4746C66.1611 97.4473 66.1934 97.415 66.2217 97.3779C66.251 97.3398 66.2739 97.2979 66.2905 97.252V97.1641C66.2905 97.0693 66.2793 96.9849 66.2568 96.9106C66.2354 96.8364 66.2061 96.7734 66.1689 96.7217C66.1309 96.6709 66.0869 96.6318 66.0371 96.6045C65.9883 96.5771 65.936 96.5635 65.8804 96.5635C65.8169 96.5635 65.7607 96.5762 65.7119 96.6016C65.6631 96.627 65.6221 96.6616 65.5889 96.7056C65.5547 96.7505 65.5288 96.8037 65.5112 96.8652C65.4937 96.9258 65.4849 96.9912 65.4849 97.0615C65.4849 97.124 65.4927 97.1855 65.5083 97.2461C65.5239 97.3057 65.5479 97.3589 65.5801 97.4058C65.6113 97.4526 65.6509 97.4907 65.6987 97.52C65.7476 97.5483 65.8047 97.5625 65.8701 97.5625ZM64.7612 102.5H63.3638V102.305L64.0625 101.529C64.125 101.459 64.1772 101.398 64.2192 101.344C64.2612 101.291 64.2949 101.241 64.3203 101.195C64.3457 101.15 64.3638 101.107 64.3745 101.067C64.3853 101.026 64.3906 100.984 64.3906 100.941C64.3906 100.889 64.3818 100.839 64.3643 100.793C64.3477 100.747 64.3232 100.706 64.291 100.672C64.2578 100.638 64.2178 100.611 64.1709 100.591C64.125 100.571 64.0728 100.561 64.0142 100.561C63.9429 100.561 63.8809 100.571 63.8281 100.591C63.7764 100.612 63.7334 100.641 63.6992 100.678C63.6641 100.716 63.6377 100.762 63.6201 100.815C63.6035 100.869 63.5952 100.929 63.5952 100.996H63.3228C63.3228 100.906 63.3384 100.821 63.3696 100.742C63.4009 100.662 63.4463 100.592 63.5059 100.533C63.5645 100.473 63.6362 100.426 63.7212 100.391C63.8071 100.355 63.9048 100.338 64.0142 100.338C64.1147 100.338 64.2051 100.353 64.2852 100.383C64.3662 100.413 64.4346 100.454 64.4902 100.506C64.5459 100.559 64.5884 100.622 64.6177 100.694C64.6479 100.766 64.6631 100.845 64.6631 100.93C64.6631 100.993 64.6523 101.056 64.6309 101.119C64.6094 101.18 64.5806 101.241 64.5444 101.302C64.5073 101.362 64.4644 101.422 64.4155 101.482C64.3677 101.541 64.3169 101.599 64.2632 101.658L63.6904 102.279H64.7612V102.5ZM66.5938 101.684C66.5938 101.82 66.5781 101.94 66.5469 102.046C66.5156 102.15 66.4707 102.238 66.4121 102.31C66.3535 102.382 66.2817 102.437 66.1968 102.474C66.1118 102.511 66.0146 102.529 65.9053 102.529C65.7969 102.529 65.6997 102.511 65.6138 102.475C65.5278 102.438 65.4551 102.383 65.3955 102.31C65.3359 102.238 65.2905 102.15 65.2593 102.046C65.228 101.94 65.2124 101.82 65.2124 101.684V101.185C65.2124 101.049 65.228 100.929 65.2593 100.824C65.2905 100.719 65.3359 100.63 65.3955 100.558C65.4541 100.485 65.5259 100.431 65.6108 100.394C65.6968 100.355 65.7939 100.336 65.9023 100.336C66.0117 100.336 66.1089 100.355 66.1938 100.394C66.2798 100.431 66.3525 100.485 66.4121 100.558C66.4707 100.63 66.5156 100.719 66.5469 100.824C66.5781 100.929 66.5938 101.049 66.5938 101.185V101.684ZM65.4849 101.63L66.3154 100.993C66.3076 100.922 66.2935 100.86 66.2729 100.807C66.2534 100.752 66.2266 100.707 66.1924 100.67C66.1592 100.633 66.1182 100.605 66.0693 100.587C66.0215 100.568 65.9658 100.559 65.9023 100.559C65.8379 100.559 65.7808 100.569 65.731 100.59C65.6821 100.609 65.6406 100.638 65.6064 100.676C65.5654 100.724 65.5347 100.786 65.5142 100.862C65.4946 100.938 65.4849 101.025 65.4849 101.125V101.482C65.4849 101.506 65.4849 101.531 65.4849 101.555C65.4849 101.58 65.4849 101.604 65.4849 101.63ZM66.3213 101.741V101.439C66.3213 101.425 66.3213 101.397 66.3213 101.356C66.3213 101.314 66.3213 101.279 66.3213 101.252L65.4922 101.886C65.501 101.958 65.5166 102.021 65.5391 102.075C65.5615 102.129 65.5908 102.173 65.627 102.208C65.6602 102.242 65.7002 102.267 65.7471 102.285C65.7939 102.301 65.8467 102.31 65.9053 102.31C65.9668 102.31 66.0215 102.3 66.0693 102.282C66.1172 102.263 66.1577 102.236 66.1909 102.201C66.2358 102.153 66.2686 102.091 66.2891 102.014C66.3105 101.937 66.3213 101.846 66.3213 101.741ZM64.7612 106.5H63.3638V106.305L64.0625 105.529C64.125 105.459 64.1772 105.398 64.2192 105.344C64.2612 105.291 64.2949 105.241 64.3203 105.195C64.3457 105.15 64.3638 105.107 64.3745 105.067C64.3853 105.026 64.3906 104.984 64.3906 104.941C64.3906 104.889 64.3818 104.839 64.3643 104.793C64.3477 104.747 64.3232 104.706 64.291 104.672C64.2578 104.638 64.2178 104.611 64.1709 104.591C64.125 104.571 64.0728 104.561 64.0142 104.561C63.9429 104.561 63.8809 104.571 63.8281 104.591C63.7764 104.612 63.7334 104.641 63.6992 104.678C63.6641 104.716 63.6377 104.762 63.6201 104.815C63.6035 104.869 63.5952 104.929 63.5952 104.996H63.3228C63.3228 104.906 63.3384 104.821 63.3696 104.742C63.4009 104.662 63.4463 104.592 63.5059 104.533C63.5645 104.473 63.6362 104.426 63.7212 104.391C63.8071 104.355 63.9048 104.338 64.0142 104.338C64.1147 104.338 64.2051 104.353 64.2852 104.383C64.3662 104.413 64.4346 104.454 64.4902 104.506C64.5459 104.559 64.5884 104.622 64.6177 104.694C64.6479 104.766 64.6631 104.845 64.6631 104.93C64.6631 104.993 64.6523 105.056 64.6309 105.119C64.6094 105.18 64.5806 105.241 64.5444 105.302C64.5073 105.362 64.4644 105.422 64.4155 105.482C64.3677 105.541 64.3169 105.599 64.2632 105.658L63.6904 106.279H64.7612V106.5ZM66.1338 106.5H65.8628V104.713L65.3047 104.925V104.678L66.1118 104.367H66.1338V106.5ZM64.7612 110.5H63.3638V110.305L64.0625 109.529C64.125 109.459 64.1772 109.398 64.2192 109.344C64.2612 109.291 64.2949 109.241 64.3203 109.195C64.3457 109.15 64.3638 109.107 64.3745 109.067C64.3853 109.026 64.3906 108.984 64.3906 108.941C64.3906 108.889 64.3818 108.839 64.3643 108.793C64.3477 108.747 64.3232 108.706 64.291 108.672C64.2578 108.638 64.2178 108.611 64.1709 108.591C64.125 108.571 64.0728 108.561 64.0142 108.561C63.9429 108.561 63.8809 108.571 63.8281 108.591C63.7764 108.612 63.7334 108.641 63.6992 108.678C63.6641 108.716 63.6377 108.762 63.6201 108.815C63.6035 108.869 63.5952 108.929 63.5952 108.996H63.3228C63.3228 108.906 63.3384 108.821 63.3696 108.742C63.4009 108.662 63.4463 108.592 63.5059 108.533C63.5645 108.473 63.6362 108.426 63.7212 108.391C63.8071 108.355 63.9048 108.338 64.0142 108.338C64.1147 108.338 64.2051 108.353 64.2852 108.383C64.3662 108.413 64.4346 108.454 64.4902 108.506C64.5459 108.559 64.5884 108.622 64.6177 108.694C64.6479 108.766 64.6631 108.845 64.6631 108.93C64.6631 108.993 64.6523 109.056 64.6309 109.119C64.6094 109.18 64.5806 109.241 64.5444 109.302C64.5073 109.362 64.4644 109.422 64.4155 109.482C64.3677 109.541 64.3169 109.599 64.2632 109.658L63.6904 110.279H64.7612V110.5ZM66.563 110.5H65.1655V110.305L65.8643 109.529C65.9268 109.459 65.979 109.398 66.021 109.344C66.063 109.291 66.0967 109.241 66.1221 109.195C66.1475 109.15 66.1655 109.107 66.1763 109.067C66.187 109.026 66.1924 108.984 66.1924 108.941C66.1924 108.889 66.1836 108.839 66.166 108.793C66.1494 108.747 66.125 108.706 66.0928 108.672C66.0596 108.638 66.0195 108.611 65.9727 108.591C65.9268 108.571 65.8745 108.561 65.8159 108.561C65.7446 108.561 65.6826 108.571 65.6299 108.591C65.5781 108.612 65.5352 108.641 65.501 108.678C65.4658 108.716 65.4395 108.762 65.4219 108.815C65.4053 108.869 65.397 108.929 65.397 108.996H65.1245C65.1245 108.906 65.1401 108.821 65.1714 108.742C65.2026 108.662 65.248 108.592 65.3076 108.533C65.3662 108.473 65.438 108.426 65.5229 108.391C65.6089 108.355 65.7065 108.338 65.8159 108.338C65.9165 108.338 66.0068 108.353 66.0869 108.383C66.168 108.413 66.2363 108.454 66.292 108.506C66.3477 108.559 66.3901 108.622 66.4194 108.694C66.4497 108.766 66.4648 108.845 66.4648 108.93C66.4648 108.993 66.4541 109.056 66.4326 109.119C66.4111 109.18 66.3823 109.241 66.3462 109.302C66.3091 109.362 66.2661 109.422 66.2173 109.482C66.1694 109.541 66.1187 109.599 66.0649 109.658L65.4922 110.279H66.563V110.5ZM64.7612 114.5H63.3638V114.305L64.0625 113.529C64.125 113.459 64.1772 113.398 64.2192 113.344C64.2612 113.291 64.2949 113.241 64.3203 113.195C64.3457 113.15 64.3638 113.107 64.3745 113.067C64.3853 113.026 64.3906 112.984 64.3906 112.941C64.3906 112.889 64.3818 112.839 64.3643 112.793C64.3477 112.747 64.3232 112.706 64.291 112.672C64.2578 112.638 64.2178 112.611 64.1709 112.591C64.125 112.571 64.0728 112.561 64.0142 112.561C63.9429 112.561 63.8809 112.571 63.8281 112.591C63.7764 112.612 63.7334 112.641 63.6992 112.678C63.6641 112.716 63.6377 112.762 63.6201 112.815C63.6035 112.869 63.5952 112.929 63.5952 112.996H63.3228C63.3228 112.906 63.3384 112.821 63.3696 112.742C63.4009 112.662 63.4463 112.592 63.5059 112.533C63.5645 112.473 63.6362 112.426 63.7212 112.391C63.8071 112.355 63.9048 112.338 64.0142 112.338C64.1147 112.338 64.2051 112.353 64.2852 112.383C64.3662 112.413 64.4346 112.454 64.4902 112.506C64.5459 112.559 64.5884 112.622 64.6177 112.694C64.6479 112.766 64.6631 112.845 64.6631 112.93C64.6631 112.993 64.6523 113.056 64.6309 113.119C64.6094 113.18 64.5806 113.241 64.5444 113.302C64.5073 113.362 64.4644 113.422 64.4155 113.482C64.3677 113.541 64.3169 113.599 64.2632 113.658L63.6904 114.279H64.7612V114.5ZM65.5713 113.303H65.7646C65.833 113.303 65.8931 113.294 65.9448 113.275C65.9976 113.257 66.042 113.231 66.0781 113.199C66.1133 113.167 66.1401 113.128 66.1587 113.083C66.1772 113.039 66.1865 112.989 66.1865 112.936C66.1865 112.872 66.1782 112.817 66.1616 112.77C66.145 112.722 66.1206 112.683 66.0884 112.651C66.0571 112.621 66.0181 112.599 65.9712 112.584C65.9253 112.568 65.8726 112.561 65.813 112.561C65.7554 112.561 65.7026 112.569 65.6548 112.587C65.6079 112.604 65.5679 112.628 65.5347 112.66C65.5005 112.692 65.4741 112.731 65.4556 112.776C65.437 112.821 65.4277 112.871 65.4277 112.927H65.1553C65.1553 112.846 65.1709 112.77 65.2021 112.698C65.2344 112.626 65.2793 112.563 65.3369 112.509C65.3945 112.457 65.4634 112.415 65.5435 112.385C65.6245 112.354 65.7144 112.338 65.813 112.338C65.9087 112.338 65.9961 112.351 66.0752 112.377C66.1543 112.403 66.2222 112.441 66.2788 112.492C66.3354 112.542 66.3794 112.605 66.4106 112.681C66.4419 112.756 66.4575 112.843 66.4575 112.941C66.4575 112.982 66.4512 113.025 66.4385 113.069C66.4258 113.113 66.4062 113.155 66.3799 113.196C66.3535 113.238 66.3193 113.278 66.2773 113.315C66.2363 113.351 66.187 113.381 66.1294 113.406C66.1987 113.428 66.2563 113.458 66.3022 113.494C66.3491 113.53 66.3867 113.57 66.415 113.615C66.4424 113.66 66.4614 113.708 66.4722 113.757C66.4839 113.807 66.4897 113.856 66.4897 113.905C66.4897 114.005 66.4727 114.093 66.4385 114.17C66.4043 114.248 66.3569 114.312 66.2964 114.365C66.2358 114.419 66.1641 114.46 66.0811 114.488C65.999 114.516 65.9102 114.529 65.8145 114.529C65.7207 114.529 65.6323 114.516 65.5493 114.49C65.4673 114.463 65.396 114.425 65.3354 114.374C65.2749 114.323 65.2266 114.261 65.1904 114.188C65.1553 114.115 65.1377 114.031 65.1377 113.938H65.4087C65.4087 113.993 65.418 114.044 65.4365 114.09C65.4561 114.136 65.4834 114.175 65.5186 114.207C65.5537 114.239 65.5962 114.264 65.646 114.282C65.6968 114.299 65.7529 114.308 65.8145 114.308C65.876 114.308 65.9316 114.3 65.9814 114.285C66.0312 114.268 66.0737 114.243 66.1089 114.21C66.144 114.177 66.1709 114.136 66.1895 114.087C66.209 114.037 66.2188 113.979 66.2188 113.911C66.2188 113.845 66.2075 113.788 66.1851 113.74C66.1636 113.691 66.1333 113.65 66.0942 113.618C66.0542 113.586 66.0059 113.562 65.9492 113.546C65.8936 113.531 65.832 113.523 65.7646 113.523H65.5713V113.303ZM64.7612 118.5H63.3638V118.305L64.0625 117.529C64.125 117.459 64.1772 117.398 64.2192 117.344C64.2612 117.291 64.2949 117.241 64.3203 117.195C64.3457 117.15 64.3638 117.107 64.3745 117.067C64.3853 117.026 64.3906 116.984 64.3906 116.941C64.3906 116.889 64.3818 116.839 64.3643 116.793C64.3477 116.747 64.3232 116.706 64.291 116.672C64.2578 116.638 64.2178 116.611 64.1709 116.591C64.125 116.571 64.0728 116.561 64.0142 116.561C63.9429 116.561 63.8809 116.571 63.8281 116.591C63.7764 116.612 63.7334 116.641 63.6992 116.678C63.6641 116.716 63.6377 116.762 63.6201 116.815C63.6035 116.869 63.5952 116.929 63.5952 116.996H63.3228C63.3228 116.906 63.3384 116.821 63.3696 116.742C63.4009 116.662 63.4463 116.592 63.5059 116.533C63.5645 116.473 63.6362 116.426 63.7212 116.391C63.8071 116.355 63.9048 116.338 64.0142 116.338C64.1147 116.338 64.2051 116.353 64.2852 116.383C64.3662 116.413 64.4346 116.454 64.4902 116.506C64.5459 116.559 64.5884 116.622 64.6177 116.694C64.6479 116.766 64.6631 116.845 64.6631 116.93C64.6631 116.993 64.6523 117.056 64.6309 117.119C64.6094 117.18 64.5806 117.241 64.5444 117.302C64.5073 117.362 64.4644 117.422 64.4155 117.482C64.3677 117.541 64.3169 117.599 64.2632 117.658L63.6904 118.279H64.7612V118.5ZM66.3535 117.784H66.6509V118.005H66.3535V118.5H66.0825V118.005H65.1099V117.845L66.0649 116.367H66.3535V117.784ZM65.4102 117.784H66.0825V116.728L66.0386 116.81L65.4102 117.784ZM64.7612 122.5H63.3638V122.305L64.0625 121.529C64.125 121.459 64.1772 121.398 64.2192 121.344C64.2612 121.291 64.2949 121.241 64.3203 121.195C64.3457 121.15 64.3638 121.107 64.3745 121.067C64.3853 121.026 64.3906 120.984 64.3906 120.941C64.3906 120.889 64.3818 120.839 64.3643 120.793C64.3477 120.747 64.3232 120.706 64.291 120.672C64.2578 120.638 64.2178 120.611 64.1709 120.591C64.125 120.571 64.0728 120.561 64.0142 120.561C63.9429 120.561 63.8809 120.571 63.8281 120.591C63.7764 120.612 63.7334 120.641 63.6992 120.678C63.6641 120.716 63.6377 120.762 63.6201 120.815C63.6035 120.869 63.5952 120.929 63.5952 120.996H63.3228C63.3228 120.906 63.3384 120.821 63.3696 120.742C63.4009 120.662 63.4463 120.592 63.5059 120.533C63.5645 120.473 63.6362 120.426 63.7212 120.391C63.8071 120.355 63.9048 120.338 64.0142 120.338C64.1147 120.338 64.2051 120.353 64.2852 120.383C64.3662 120.413 64.4346 120.454 64.4902 120.506C64.5459 120.559 64.5884 120.622 64.6177 120.694C64.6479 120.766 64.6631 120.845 64.6631 120.93C64.6631 120.993 64.6523 121.056 64.6309 121.119C64.6094 121.18 64.5806 121.241 64.5444 121.302C64.5073 121.362 64.4644 121.422 64.4155 121.482C64.3677 121.541 64.3169 121.599 64.2632 121.658L63.6904 122.279H64.7612V122.5ZM65.3516 121.431L65.4585 120.367H66.5527V120.631H65.687L65.627 121.199C65.6689 121.175 65.7192 121.153 65.7778 121.135C65.8364 121.116 65.9043 121.107 65.9814 121.107C66.0801 121.107 66.1685 121.124 66.2466 121.158C66.3247 121.192 66.3911 121.24 66.4458 121.302C66.5005 121.364 66.5425 121.439 66.5718 121.527C66.6011 121.615 66.6157 121.713 66.6157 121.82C66.6157 121.922 66.6021 122.016 66.5747 122.103C66.5474 122.19 66.5063 122.265 66.4517 122.327C66.396 122.391 66.3262 122.44 66.2422 122.477C66.1582 122.512 66.0596 122.529 65.9463 122.529C65.8594 122.529 65.7773 122.517 65.7002 122.493C65.623 122.468 65.5547 122.432 65.4951 122.383C65.4346 122.334 65.3848 122.272 65.3457 122.198C65.3076 122.124 65.2837 122.038 65.2739 121.939H65.5317C65.5483 122.06 65.5928 122.152 65.665 122.214C65.7383 122.277 65.832 122.308 65.9463 122.308C66.0107 122.308 66.0679 122.297 66.1177 122.274C66.1675 122.251 66.2095 122.218 66.2437 122.175C66.2769 122.133 66.3018 122.082 66.3184 122.022C66.3359 121.963 66.3447 121.896 66.3447 121.823C66.3447 121.757 66.335 121.695 66.3154 121.637C66.2969 121.58 66.2695 121.529 66.2334 121.486C66.1973 121.444 66.1528 121.411 66.1001 121.387C66.0474 121.362 65.9868 121.35 65.9185 121.35C65.8735 121.35 65.8345 121.354 65.8013 121.36C65.769 121.366 65.7397 121.375 65.7134 121.387C65.687 121.398 65.6621 121.413 65.6387 121.429C65.6162 121.446 65.5928 121.465 65.5684 121.486L65.3516 121.431ZM64.7612 126.5H63.3638V126.305L64.0625 125.529C64.125 125.459 64.1772 125.398 64.2192 125.344C64.2612 125.291 64.2949 125.241 64.3203 125.195C64.3457 125.15 64.3638 125.107 64.3745 125.067C64.3853 125.026 64.3906 124.984 64.3906 124.941C64.3906 124.889 64.3818 124.839 64.3643 124.793C64.3477 124.747 64.3232 124.706 64.291 124.672C64.2578 124.638 64.2178 124.611 64.1709 124.591C64.125 124.571 64.0728 124.561 64.0142 124.561C63.9429 124.561 63.8809 124.571 63.8281 124.591C63.7764 124.612 63.7334 124.641 63.6992 124.678C63.6641 124.716 63.6377 124.762 63.6201 124.815C63.6035 124.869 63.5952 124.929 63.5952 124.996H63.3228C63.3228 124.906 63.3384 124.821 63.3696 124.742C63.4009 124.662 63.4463 124.592 63.5059 124.533C63.5645 124.473 63.6362 124.426 63.7212 124.391C63.8071 124.355 63.9048 124.338 64.0142 124.338C64.1147 124.338 64.2051 124.353 64.2852 124.383C64.3662 124.413 64.4346 124.454 64.4902 124.506C64.5459 124.559 64.5884 124.622 64.6177 124.694C64.6479 124.766 64.6631 124.845 64.6631 124.93C64.6631 124.993 64.6523 125.056 64.6309 125.119C64.6094 125.18 64.5806 125.241 64.5444 125.302C64.5073 125.362 64.4644 125.422 64.4155 125.482C64.3677 125.541 64.3169 125.599 64.2632 125.658L63.6904 126.279H64.7612V126.5ZM66.2539 124.366V124.609H66.2305C66.1016 124.609 65.9922 124.627 65.9023 124.665C65.8125 124.701 65.7383 124.75 65.6797 124.811C65.6182 124.875 65.5713 124.952 65.5391 125.041C65.5078 125.13 65.4893 125.221 65.4834 125.315C65.5088 125.285 65.5381 125.257 65.5713 125.231C65.6045 125.205 65.6406 125.182 65.6797 125.163C65.7178 125.144 65.7588 125.129 65.8027 125.119C65.8477 125.107 65.8945 125.101 65.9434 125.101C66.0498 125.101 66.1416 125.122 66.2188 125.163C66.2959 125.203 66.3594 125.256 66.4092 125.322C66.459 125.389 66.4956 125.464 66.519 125.548C66.5425 125.632 66.5542 125.717 66.5542 125.804C66.5542 125.904 66.54 125.998 66.5117 126.085C66.4844 126.173 66.4429 126.25 66.3872 126.315C66.3315 126.382 66.2622 126.434 66.1792 126.472C66.0972 126.51 66.002 126.529 65.8936 126.529C65.7842 126.529 65.688 126.507 65.605 126.463C65.522 126.419 65.4521 126.362 65.3955 126.292C65.332 126.215 65.2847 126.125 65.2534 126.022C65.2222 125.919 65.2065 125.815 65.2065 125.712V125.584C65.2065 125.407 65.2275 125.232 65.2695 125.06C65.3115 124.888 65.3936 124.741 65.5156 124.619C65.5996 124.535 65.7017 124.472 65.8218 124.43C65.9419 124.387 66.0781 124.366 66.2305 124.366H66.2539ZM65.8994 125.327C65.8535 125.327 65.8091 125.334 65.7661 125.349C65.7231 125.363 65.6831 125.384 65.646 125.41C65.6089 125.437 65.5762 125.468 65.5479 125.505C65.5195 125.542 65.4971 125.583 65.4805 125.628V125.719C65.4805 125.813 65.4917 125.896 65.5142 125.97C65.5366 126.042 65.5669 126.103 65.605 126.153C65.6431 126.203 65.687 126.241 65.7368 126.267C65.7866 126.292 65.8389 126.305 65.8936 126.305C65.957 126.305 66.0132 126.293 66.062 126.269C66.1108 126.244 66.1523 126.21 66.1865 126.167C66.2197 126.125 66.2446 126.073 66.2612 126.014C66.2788 125.953 66.2876 125.888 66.2876 125.817C66.2876 125.755 66.2798 125.694 66.2642 125.636C66.2485 125.576 66.2246 125.523 66.1924 125.478C66.1602 125.432 66.1196 125.395 66.0708 125.368C66.022 125.34 65.9648 125.327 65.8994 125.327ZM64.7612 130.5H63.3638V130.305L64.0625 129.529C64.125 129.459 64.1772 129.398 64.2192 129.344C64.2612 129.291 64.2949 129.241 64.3203 129.195C64.3457 129.15 64.3638 129.107 64.3745 129.067C64.3853 129.026 64.3906 128.984 64.3906 128.941C64.3906 128.889 64.3818 128.839 64.3643 128.793C64.3477 128.747 64.3232 128.706 64.291 128.672C64.2578 128.638 64.2178 128.611 64.1709 128.591C64.125 128.571 64.0728 128.561 64.0142 128.561C63.9429 128.561 63.8809 128.571 63.8281 128.591C63.7764 128.612 63.7334 128.641 63.6992 128.678C63.6641 128.716 63.6377 128.762 63.6201 128.815C63.6035 128.869 63.5952 128.929 63.5952 128.996H63.3228C63.3228 128.906 63.3384 128.821 63.3696 128.742C63.4009 128.662 63.4463 128.592 63.5059 128.533C63.5645 128.473 63.6362 128.426 63.7212 128.391C63.8071 128.355 63.9048 128.338 64.0142 128.338C64.1147 128.338 64.2051 128.353 64.2852 128.383C64.3662 128.413 64.4346 128.454 64.4902 128.506C64.5459 128.559 64.5884 128.622 64.6177 128.694C64.6479 128.766 64.6631 128.845 64.6631 128.93C64.6631 128.993 64.6523 129.056 64.6309 129.119C64.6094 129.18 64.5806 129.241 64.5444 129.302C64.5073 129.362 64.4644 129.422 64.4155 129.482C64.3677 129.541 64.3169 129.599 64.2632 129.658L63.6904 130.279H64.7612V130.5ZM66.6055 128.52L65.7222 130.5H65.438L66.3184 128.604H65.1641V128.367H66.6055V128.52ZM64.7612 134.5H63.3638V134.305L64.0625 133.529C64.125 133.459 64.1772 133.398 64.2192 133.344C64.2612 133.291 64.2949 133.241 64.3203 133.195C64.3457 133.15 64.3638 133.107 64.3745 133.067C64.3853 133.026 64.3906 132.984 64.3906 132.941C64.3906 132.889 64.3818 132.839 64.3643 132.793C64.3477 132.747 64.3232 132.706 64.291 132.672C64.2578 132.638 64.2178 132.611 64.1709 132.591C64.125 132.571 64.0728 132.561 64.0142 132.561C63.9429 132.561 63.8809 132.571 63.8281 132.591C63.7764 132.612 63.7334 132.641 63.6992 132.678C63.6641 132.716 63.6377 132.762 63.6201 132.815C63.6035 132.869 63.5952 132.929 63.5952 132.996H63.3228C63.3228 132.906 63.3384 132.821 63.3696 132.742C63.4009 132.662 63.4463 132.592 63.5059 132.533C63.5645 132.473 63.6362 132.426 63.7212 132.391C63.8071 132.355 63.9048 132.338 64.0142 132.338C64.1147 132.338 64.2051 132.353 64.2852 132.383C64.3662 132.413 64.4346 132.454 64.4902 132.506C64.5459 132.559 64.5884 132.622 64.6177 132.694C64.6479 132.766 64.6631 132.845 64.6631 132.93C64.6631 132.993 64.6523 133.056 64.6309 133.119C64.6094 133.18 64.5806 133.241 64.5444 133.302C64.5073 133.362 64.4644 133.422 64.4155 133.482C64.3677 133.541 64.3169 133.599 64.2632 133.658L63.6904 134.279H64.7612V134.5ZM66.5674 132.924C66.5664 132.995 66.5527 133.062 66.5264 133.125C66.5 133.186 66.4634 133.24 66.4165 133.287C66.394 133.31 66.3691 133.331 66.3418 133.35C66.3145 133.37 66.2852 133.387 66.2539 133.403C66.3086 133.426 66.3579 133.456 66.4019 133.491C66.4468 133.525 66.4854 133.564 66.5176 133.609C66.5488 133.654 66.5728 133.703 66.5894 133.756C66.6069 133.809 66.6157 133.865 66.6157 133.924C66.6157 134.021 66.5977 134.107 66.5615 134.182C66.5264 134.257 66.4785 134.32 66.418 134.371C66.3564 134.423 66.2847 134.462 66.2026 134.49C66.1206 134.516 66.0327 134.529 65.939 134.529C65.8433 134.529 65.7539 134.516 65.6709 134.49C65.5889 134.463 65.5176 134.424 65.457 134.373C65.3955 134.322 65.3472 134.259 65.312 134.184C65.2769 134.108 65.2593 134.022 65.2593 133.924C65.2593 133.865 65.2676 133.809 65.2842 133.756C65.3008 133.702 65.3247 133.653 65.356 133.608C65.3872 133.564 65.4248 133.524 65.4688 133.489C65.5127 133.454 65.562 133.425 65.6167 133.401C65.5698 133.378 65.5273 133.35 65.4893 133.318C65.4512 133.285 65.4189 133.248 65.3926 133.207C65.3662 133.167 65.3457 133.123 65.3311 133.075C65.3164 133.027 65.3091 132.977 65.3091 132.924C65.3091 132.831 65.3247 132.749 65.356 132.676C65.3872 132.603 65.4307 132.542 65.4863 132.492C65.541 132.442 65.6064 132.404 65.6826 132.377C65.7598 132.351 65.8438 132.338 65.9346 132.338C66.0244 132.338 66.1079 132.351 66.1851 132.377C66.2622 132.404 66.3291 132.442 66.3857 132.492C66.4424 132.542 66.4868 132.603 66.519 132.676C66.5513 132.749 66.5674 132.831 66.5674 132.924ZM66.3447 133.918C66.3447 133.859 66.3345 133.804 66.314 133.754C66.2944 133.705 66.2666 133.662 66.2305 133.625C66.1943 133.59 66.1509 133.563 66.1001 133.543C66.0503 133.524 65.9956 133.514 65.936 133.514C65.8745 133.514 65.8188 133.524 65.769 133.543C65.7192 133.563 65.6768 133.59 65.6416 133.625C65.6064 133.662 65.5791 133.705 65.5596 133.754C65.541 133.804 65.5317 133.859 65.5317 133.918C65.5317 133.98 65.541 134.035 65.5596 134.084C65.5791 134.132 65.6064 134.172 65.6416 134.206C65.6768 134.239 65.7192 134.264 65.769 134.282C65.8198 134.299 65.8765 134.308 65.939 134.308C65.9985 134.308 66.0532 134.299 66.103 134.282C66.1528 134.264 66.1958 134.239 66.2319 134.206C66.2671 134.172 66.2944 134.132 66.314 134.084C66.3345 134.035 66.3447 133.98 66.3447 133.918ZM66.2949 132.928C66.2949 132.875 66.2856 132.825 66.2671 132.78C66.2495 132.735 66.2251 132.696 66.1938 132.663C66.1616 132.631 66.1235 132.606 66.0796 132.588C66.0356 132.57 65.9873 132.561 65.9346 132.561C65.8818 132.561 65.834 132.569 65.791 132.587C65.748 132.604 65.7109 132.628 65.6797 132.66C65.6484 132.692 65.624 132.731 65.6064 132.777C65.5898 132.822 65.5815 132.873 65.5815 132.928C65.5815 132.984 65.5898 133.034 65.6064 133.079C65.624 133.123 65.6489 133.161 65.6812 133.192C65.7124 133.224 65.7495 133.249 65.7925 133.267C65.8364 133.283 65.8848 133.292 65.9375 133.292C65.9893 133.292 66.0371 133.283 66.0811 133.267C66.125 133.249 66.1631 133.224 66.1953 133.192C66.2266 133.161 66.251 133.123 66.2686 133.078C66.2861 133.033 66.2949 132.983 66.2949 132.928ZM64.7612 138.5H63.3638V138.305L64.0625 137.529C64.125 137.459 64.1772 137.398 64.2192 137.344C64.2612 137.291 64.2949 137.241 64.3203 137.195C64.3457 137.15 64.3638 137.107 64.3745 137.067C64.3853 137.026 64.3906 136.984 64.3906 136.941C64.3906 136.889 64.3818 136.839 64.3643 136.793C64.3477 136.747 64.3232 136.706 64.291 136.672C64.2578 136.638 64.2178 136.611 64.1709 136.591C64.125 136.571 64.0728 136.561 64.0142 136.561C63.9429 136.561 63.8809 136.571 63.8281 136.591C63.7764 136.612 63.7334 136.641 63.6992 136.678C63.6641 136.716 63.6377 136.762 63.6201 136.815C63.6035 136.869 63.5952 136.929 63.5952 136.996H63.3228C63.3228 136.906 63.3384 136.821 63.3696 136.742C63.4009 136.662 63.4463 136.592 63.5059 136.533C63.5645 136.473 63.6362 136.426 63.7212 136.391C63.8071 136.355 63.9048 136.338 64.0142 136.338C64.1147 136.338 64.2051 136.353 64.2852 136.383C64.3662 136.413 64.4346 136.454 64.4902 136.506C64.5459 136.559 64.5884 136.622 64.6177 136.694C64.6479 136.766 64.6631 136.845 64.6631 136.93C64.6631 136.993 64.6523 137.056 64.6309 137.119C64.6094 137.18 64.5806 137.241 64.5444 137.302C64.5073 137.362 64.4644 137.422 64.4155 137.482C64.3677 137.541 64.3169 137.599 64.2632 137.658L63.6904 138.279H64.7612V138.5ZM65.5464 138.26C65.6831 138.26 65.7969 138.244 65.8877 138.211C65.9795 138.178 66.0532 138.132 66.1089 138.072C66.1763 137.999 66.2217 137.92 66.2451 137.836C66.2686 137.752 66.2827 137.666 66.2876 137.576V137.573C66.2642 137.602 66.2373 137.63 66.207 137.656C66.1768 137.682 66.1426 137.704 66.1045 137.724C66.0664 137.743 66.0239 137.759 65.9771 137.771C65.9312 137.781 65.8809 137.787 65.8262 137.787C65.7207 137.787 65.6294 137.766 65.5522 137.725C65.4761 137.683 65.4131 137.628 65.3633 137.561C65.3135 137.494 65.2769 137.417 65.2534 137.333C65.23 137.248 65.2183 137.162 65.2183 137.076C65.2183 136.976 65.2319 136.881 65.2593 136.792C65.2876 136.702 65.3296 136.624 65.3853 136.556C65.4399 136.49 65.5083 136.437 65.5903 136.398C65.6733 136.358 65.7695 136.338 65.8789 136.338C65.9883 136.338 66.083 136.358 66.1631 136.399C66.2441 136.439 66.312 136.493 66.3667 136.559C66.4312 136.637 66.4795 136.735 66.5117 136.852C66.5439 136.968 66.5601 137.084 66.5601 137.201V137.299C66.5601 137.464 66.5425 137.63 66.5073 137.797C66.4722 137.963 66.397 138.11 66.2817 138.239C66.2124 138.317 66.1162 138.381 65.9932 138.43C65.8711 138.478 65.7222 138.501 65.5464 138.501H65.5186V138.26H65.5464ZM65.8701 137.562C65.916 137.562 65.9604 137.555 66.0034 137.541C66.0474 137.525 66.0879 137.503 66.125 137.475C66.1611 137.447 66.1934 137.415 66.2217 137.378C66.251 137.34 66.2739 137.298 66.2905 137.252V137.164C66.2905 137.069 66.2793 136.985 66.2568 136.911C66.2354 136.836 66.2061 136.773 66.1689 136.722C66.1309 136.671 66.0869 136.632 66.0371 136.604C65.9883 136.577 65.936 136.563 65.8804 136.563C65.8169 136.563 65.7607 136.576 65.7119 136.602C65.6631 136.627 65.6221 136.662 65.5889 136.706C65.5547 136.75 65.5288 136.804 65.5112 136.865C65.4937 136.926 65.4849 136.991 65.4849 137.062C65.4849 137.124 65.4927 137.186 65.5083 137.246C65.5239 137.306 65.5479 137.359 65.5801 137.406C65.6113 137.453 65.6509 137.491 65.6987 137.52C65.7476 137.548 65.8047 137.562 65.8701 137.562ZM63.7695 141.303H63.9629C64.0312 141.303 64.0913 141.294 64.1431 141.275C64.1958 141.257 64.2402 141.231 64.2764 141.199C64.3115 141.167 64.3384 141.128 64.3569 141.083C64.3755 141.039 64.3848 140.989 64.3848 140.936C64.3848 140.872 64.3765 140.817 64.3599 140.77C64.3433 140.722 64.3188 140.683 64.2866 140.651C64.2554 140.621 64.2163 140.599 64.1694 140.584C64.1235 140.568 64.0708 140.561 64.0112 140.561C63.9536 140.561 63.9009 140.569 63.853 140.587C63.8062 140.604 63.7661 140.628 63.7329 140.66C63.6987 140.692 63.6724 140.731 63.6538 140.776C63.6353 140.821 63.626 140.871 63.626 140.927H63.3535C63.3535 140.846 63.3691 140.77 63.4004 140.698C63.4326 140.626 63.4775 140.563 63.5352 140.509C63.5928 140.457 63.6616 140.415 63.7417 140.385C63.8228 140.354 63.9126 140.338 64.0112 140.338C64.1069 140.338 64.1943 140.351 64.2734 140.377C64.3525 140.403 64.4204 140.441 64.4771 140.492C64.5337 140.542 64.5776 140.605 64.6089 140.681C64.6401 140.756 64.6558 140.843 64.6558 140.941C64.6558 140.982 64.6494 141.025 64.6367 141.069C64.624 141.113 64.6045 141.155 64.5781 141.196C64.5518 141.238 64.5176 141.278 64.4756 141.315C64.4346 141.351 64.3853 141.381 64.3276 141.406C64.397 141.428 64.4546 141.458 64.5005 141.494C64.5474 141.53 64.585 141.57 64.6133 141.615C64.6406 141.66 64.6597 141.708 64.6704 141.757C64.6821 141.807 64.688 141.856 64.688 141.905C64.688 142.005 64.6709 142.093 64.6367 142.17C64.6025 142.248 64.5552 142.312 64.4946 142.365C64.4341 142.419 64.3623 142.46 64.2793 142.488C64.1973 142.516 64.1084 142.529 64.0127 142.529C63.9189 142.529 63.8306 142.516 63.7476 142.49C63.6655 142.463 63.5942 142.425 63.5337 142.374C63.4731 142.323 63.4248 142.261 63.3887 142.188C63.3535 142.115 63.3359 142.031 63.3359 141.938H63.6069C63.6069 141.993 63.6162 142.044 63.6348 142.09C63.6543 142.136 63.6816 142.175 63.7168 142.207C63.752 142.239 63.7944 142.264 63.8442 142.282C63.895 142.299 63.9512 142.308 64.0127 142.308C64.0742 142.308 64.1299 142.3 64.1797 142.285C64.2295 142.268 64.272 142.243 64.3071 142.21C64.3423 142.177 64.3691 142.136 64.3877 142.087C64.4072 142.037 64.417 141.979 64.417 141.911C64.417 141.845 64.4058 141.788 64.3833 141.74C64.3618 141.691 64.3315 141.65 64.2925 141.618C64.2524 141.586 64.2041 141.562 64.1475 141.546C64.0918 141.531 64.0303 141.523 63.9629 141.523H63.7695V141.303ZM66.5938 141.684C66.5938 141.82 66.5781 141.94 66.5469 142.046C66.5156 142.15 66.4707 142.238 66.4121 142.31C66.3535 142.382 66.2817 142.437 66.1968 142.474C66.1118 142.511 66.0146 142.529 65.9053 142.529C65.7969 142.529 65.6997 142.511 65.6138 142.475C65.5278 142.438 65.4551 142.383 65.3955 142.31C65.3359 142.238 65.2905 142.15 65.2593 142.046C65.228 141.94 65.2124 141.82 65.2124 141.684V141.185C65.2124 141.049 65.228 140.929 65.2593 140.824C65.2905 140.719 65.3359 140.63 65.3955 140.558C65.4541 140.485 65.5259 140.431 65.6108 140.394C65.6968 140.355 65.7939 140.336 65.9023 140.336C66.0117 140.336 66.1089 140.355 66.1938 140.394C66.2798 140.431 66.3525 140.485 66.4121 140.558C66.4707 140.63 66.5156 140.719 66.5469 140.824C66.5781 140.929 66.5938 141.049 66.5938 141.185V141.684ZM65.4849 141.63L66.3154 140.993C66.3076 140.922 66.2935 140.86 66.2729 140.807C66.2534 140.752 66.2266 140.707 66.1924 140.67C66.1592 140.633 66.1182 140.605 66.0693 140.587C66.0215 140.568 65.9658 140.559 65.9023 140.559C65.8379 140.559 65.7808 140.569 65.731 140.59C65.6821 140.609 65.6406 140.638 65.6064 140.676C65.5654 140.724 65.5347 140.786 65.5142 140.862C65.4946 140.938 65.4849 141.025 65.4849 141.125V141.482C65.4849 141.506 65.4849 141.531 65.4849 141.555C65.4849 141.58 65.4849 141.604 65.4849 141.63ZM66.3213 141.741V141.439C66.3213 141.425 66.3213 141.397 66.3213 141.356C66.3213 141.314 66.3213 141.279 66.3213 141.252L65.4922 141.886C65.501 141.958 65.5166 142.021 65.5391 142.075C65.5615 142.129 65.5908 142.173 65.627 142.208C65.6602 142.242 65.7002 142.267 65.7471 142.285C65.7939 142.301 65.8467 142.31 65.9053 142.31C65.9668 142.31 66.0215 142.3 66.0693 142.282C66.1172 142.263 66.1577 142.236 66.1909 142.201C66.2358 142.153 66.2686 142.091 66.2891 142.014C66.3105 141.937 66.3213 141.846 66.3213 141.741ZM63.7695 145.303H63.9629C64.0312 145.303 64.0913 145.294 64.1431 145.275C64.1958 145.257 64.2402 145.231 64.2764 145.199C64.3115 145.167 64.3384 145.128 64.3569 145.083C64.3755 145.039 64.3848 144.989 64.3848 144.936C64.3848 144.872 64.3765 144.817 64.3599 144.77C64.3433 144.722 64.3188 144.683 64.2866 144.651C64.2554 144.621 64.2163 144.599 64.1694 144.584C64.1235 144.568 64.0708 144.561 64.0112 144.561C63.9536 144.561 63.9009 144.569 63.853 144.587C63.8062 144.604 63.7661 144.628 63.7329 144.66C63.6987 144.692 63.6724 144.731 63.6538 144.776C63.6353 144.821 63.626 144.871 63.626 144.927H63.3535C63.3535 144.846 63.3691 144.77 63.4004 144.698C63.4326 144.626 63.4775 144.563 63.5352 144.509C63.5928 144.457 63.6616 144.415 63.7417 144.385C63.8228 144.354 63.9126 144.338 64.0112 144.338C64.1069 144.338 64.1943 144.351 64.2734 144.377C64.3525 144.403 64.4204 144.441 64.4771 144.492C64.5337 144.542 64.5776 144.605 64.6089 144.681C64.6401 144.756 64.6558 144.843 64.6558 144.941C64.6558 144.982 64.6494 145.025 64.6367 145.069C64.624 145.113 64.6045 145.155 64.5781 145.196C64.5518 145.238 64.5176 145.278 64.4756 145.315C64.4346 145.351 64.3853 145.381 64.3276 145.406C64.397 145.428 64.4546 145.458 64.5005 145.494C64.5474 145.53 64.585 145.57 64.6133 145.615C64.6406 145.66 64.6597 145.708 64.6704 145.757C64.6821 145.807 64.688 145.856 64.688 145.905C64.688 146.005 64.6709 146.093 64.6367 146.17C64.6025 146.248 64.5552 146.312 64.4946 146.365C64.4341 146.419 64.3623 146.46 64.2793 146.488C64.1973 146.516 64.1084 146.529 64.0127 146.529C63.9189 146.529 63.8306 146.516 63.7476 146.49C63.6655 146.463 63.5942 146.425 63.5337 146.374C63.4731 146.323 63.4248 146.261 63.3887 146.188C63.3535 146.115 63.3359 146.031 63.3359 145.938H63.6069C63.6069 145.993 63.6162 146.044 63.6348 146.09C63.6543 146.136 63.6816 146.175 63.7168 146.207C63.752 146.239 63.7944 146.264 63.8442 146.282C63.895 146.299 63.9512 146.308 64.0127 146.308C64.0742 146.308 64.1299 146.3 64.1797 146.285C64.2295 146.268 64.272 146.243 64.3071 146.21C64.3423 146.177 64.3691 146.136 64.3877 146.087C64.4072 146.037 64.417 145.979 64.417 145.911C64.417 145.845 64.4058 145.788 64.3833 145.74C64.3618 145.691 64.3315 145.65 64.2925 145.618C64.2524 145.586 64.2041 145.562 64.1475 145.546C64.0918 145.531 64.0303 145.523 63.9629 145.523H63.7695V145.303ZM66.1338 146.5H65.8628V144.713L65.3047 144.925V144.678L66.1118 144.367H66.1338V146.5ZM63.7695 149.303H63.9629C64.0312 149.303 64.0913 149.294 64.1431 149.275C64.1958 149.257 64.2402 149.231 64.2764 149.199C64.3115 149.167 64.3384 149.128 64.3569 149.083C64.3755 149.039 64.3848 148.989 64.3848 148.936C64.3848 148.872 64.3765 148.817 64.3599 148.77C64.3433 148.722 64.3188 148.683 64.2866 148.651C64.2554 148.621 64.2163 148.599 64.1694 148.584C64.1235 148.568 64.0708 148.561 64.0112 148.561C63.9536 148.561 63.9009 148.569 63.853 148.587C63.8062 148.604 63.7661 148.628 63.7329 148.66C63.6987 148.692 63.6724 148.731 63.6538 148.776C63.6353 148.821 63.626 148.871 63.626 148.927H63.3535C63.3535 148.846 63.3691 148.77 63.4004 148.698C63.4326 148.626 63.4775 148.563 63.5352 148.509C63.5928 148.457 63.6616 148.415 63.7417 148.385C63.8228 148.354 63.9126 148.338 64.0112 148.338C64.1069 148.338 64.1943 148.351 64.2734 148.377C64.3525 148.403 64.4204 148.441 64.4771 148.492C64.5337 148.542 64.5776 148.605 64.6089 148.681C64.6401 148.756 64.6558 148.843 64.6558 148.941C64.6558 148.982 64.6494 149.025 64.6367 149.069C64.624 149.113 64.6045 149.155 64.5781 149.196C64.5518 149.238 64.5176 149.278 64.4756 149.315C64.4346 149.351 64.3853 149.381 64.3276 149.406C64.397 149.428 64.4546 149.458 64.5005 149.494C64.5474 149.53 64.585 149.57 64.6133 149.615C64.6406 149.66 64.6597 149.708 64.6704 149.757C64.6821 149.807 64.688 149.856 64.688 149.905C64.688 150.005 64.6709 150.093 64.6367 150.17C64.6025 150.248 64.5552 150.312 64.4946 150.365C64.4341 150.419 64.3623 150.46 64.2793 150.488C64.1973 150.516 64.1084 150.529 64.0127 150.529C63.9189 150.529 63.8306 150.516 63.7476 150.49C63.6655 150.463 63.5942 150.425 63.5337 150.374C63.4731 150.323 63.4248 150.261 63.3887 150.188C63.3535 150.115 63.3359 150.031 63.3359 149.938H63.6069C63.6069 149.993 63.6162 150.044 63.6348 150.09C63.6543 150.136 63.6816 150.175 63.7168 150.207C63.752 150.239 63.7944 150.264 63.8442 150.282C63.895 150.299 63.9512 150.308 64.0127 150.308C64.0742 150.308 64.1299 150.3 64.1797 150.285C64.2295 150.268 64.272 150.243 64.3071 150.21C64.3423 150.177 64.3691 150.136 64.3877 150.087C64.4072 150.037 64.417 149.979 64.417 149.911C64.417 149.845 64.4058 149.788 64.3833 149.74C64.3618 149.691 64.3315 149.65 64.2925 149.618C64.2524 149.586 64.2041 149.562 64.1475 149.546C64.0918 149.531 64.0303 149.523 63.9629 149.523H63.7695V149.303ZM66.563 150.5H65.1655V150.305L65.8643 149.529C65.9268 149.459 65.979 149.398 66.021 149.344C66.063 149.291 66.0967 149.241 66.1221 149.195C66.1475 149.15 66.1655 149.107 66.1763 149.067C66.187 149.026 66.1924 148.984 66.1924 148.941C66.1924 148.889 66.1836 148.839 66.166 148.793C66.1494 148.747 66.125 148.706 66.0928 148.672C66.0596 148.638 66.0195 148.611 65.9727 148.591C65.9268 148.571 65.8745 148.561 65.8159 148.561C65.7446 148.561 65.6826 148.571 65.6299 148.591C65.5781 148.612 65.5352 148.641 65.501 148.678C65.4658 148.716 65.4395 148.762 65.4219 148.815C65.4053 148.869 65.397 148.929 65.397 148.996H65.1245C65.1245 148.906 65.1401 148.821 65.1714 148.742C65.2026 148.662 65.248 148.592 65.3076 148.533C65.3662 148.473 65.438 148.426 65.5229 148.391C65.6089 148.355 65.7065 148.338 65.8159 148.338C65.9165 148.338 66.0068 148.353 66.0869 148.383C66.168 148.413 66.2363 148.454 66.292 148.506C66.3477 148.559 66.3901 148.622 66.4194 148.694C66.4497 148.766 66.4648 148.845 66.4648 148.93C66.4648 148.993 66.4541 149.056 66.4326 149.119C66.4111 149.18 66.3823 149.241 66.3462 149.302C66.3091 149.362 66.2661 149.422 66.2173 149.482C66.1694 149.541 66.1187 149.599 66.0649 149.658L65.4922 150.279H66.563V150.5ZM63.7695 153.303H63.9629C64.0312 153.303 64.0913 153.294 64.1431 153.275C64.1958 153.257 64.2402 153.231 64.2764 153.199C64.3115 153.167 64.3384 153.128 64.3569 153.083C64.3755 153.039 64.3848 152.989 64.3848 152.936C64.3848 152.872 64.3765 152.817 64.3599 152.77C64.3433 152.722 64.3188 152.683 64.2866 152.651C64.2554 152.621 64.2163 152.599 64.1694 152.584C64.1235 152.568 64.0708 152.561 64.0112 152.561C63.9536 152.561 63.9009 152.569 63.853 152.587C63.8062 152.604 63.7661 152.628 63.7329 152.66C63.6987 152.692 63.6724 152.731 63.6538 152.776C63.6353 152.821 63.626 152.871 63.626 152.927H63.3535C63.3535 152.846 63.3691 152.77 63.4004 152.698C63.4326 152.626 63.4775 152.563 63.5352 152.509C63.5928 152.457 63.6616 152.415 63.7417 152.385C63.8228 152.354 63.9126 152.338 64.0112 152.338C64.1069 152.338 64.1943 152.351 64.2734 152.377C64.3525 152.403 64.4204 152.441 64.4771 152.492C64.5337 152.542 64.5776 152.605 64.6089 152.681C64.6401 152.756 64.6558 152.843 64.6558 152.941C64.6558 152.982 64.6494 153.025 64.6367 153.069C64.624 153.113 64.6045 153.155 64.5781 153.196C64.5518 153.238 64.5176 153.278 64.4756 153.315C64.4346 153.351 64.3853 153.381 64.3276 153.406C64.397 153.428 64.4546 153.458 64.5005 153.494C64.5474 153.53 64.585 153.57 64.6133 153.615C64.6406 153.66 64.6597 153.708 64.6704 153.757C64.6821 153.807 64.688 153.856 64.688 153.905C64.688 154.005 64.6709 154.093 64.6367 154.17C64.6025 154.248 64.5552 154.312 64.4946 154.365C64.4341 154.419 64.3623 154.46 64.2793 154.488C64.1973 154.516 64.1084 154.529 64.0127 154.529C63.9189 154.529 63.8306 154.516 63.7476 154.49C63.6655 154.463 63.5942 154.425 63.5337 154.374C63.4731 154.323 63.4248 154.261 63.3887 154.188C63.3535 154.115 63.3359 154.031 63.3359 153.938H63.6069C63.6069 153.993 63.6162 154.044 63.6348 154.09C63.6543 154.136 63.6816 154.175 63.7168 154.207C63.752 154.239 63.7944 154.264 63.8442 154.282C63.895 154.299 63.9512 154.308 64.0127 154.308C64.0742 154.308 64.1299 154.3 64.1797 154.285C64.2295 154.268 64.272 154.243 64.3071 154.21C64.3423 154.177 64.3691 154.136 64.3877 154.087C64.4072 154.037 64.417 153.979 64.417 153.911C64.417 153.845 64.4058 153.788 64.3833 153.74C64.3618 153.691 64.3315 153.65 64.2925 153.618C64.2524 153.586 64.2041 153.562 64.1475 153.546C64.0918 153.531 64.0303 153.523 63.9629 153.523H63.7695V153.303ZM65.5713 153.303H65.7646C65.833 153.303 65.8931 153.294 65.9448 153.275C65.9976 153.257 66.042 153.231 66.0781 153.199C66.1133 153.167 66.1401 153.128 66.1587 153.083C66.1772 153.039 66.1865 152.989 66.1865 152.936C66.1865 152.872 66.1782 152.817 66.1616 152.77C66.145 152.722 66.1206 152.683 66.0884 152.651C66.0571 152.621 66.0181 152.599 65.9712 152.584C65.9253 152.568 65.8726 152.561 65.813 152.561C65.7554 152.561 65.7026 152.569 65.6548 152.587C65.6079 152.604 65.5679 152.628 65.5347 152.66C65.5005 152.692 65.4741 152.731 65.4556 152.776C65.437 152.821 65.4277 152.871 65.4277 152.927H65.1553C65.1553 152.846 65.1709 152.77 65.2021 152.698C65.2344 152.626 65.2793 152.563 65.3369 152.509C65.3945 152.457 65.4634 152.415 65.5435 152.385C65.6245 152.354 65.7144 152.338 65.813 152.338C65.9087 152.338 65.9961 152.351 66.0752 152.377C66.1543 152.403 66.2222 152.441 66.2788 152.492C66.3354 152.542 66.3794 152.605 66.4106 152.681C66.4419 152.756 66.4575 152.843 66.4575 152.941C66.4575 152.982 66.4512 153.025 66.4385 153.069C66.4258 153.113 66.4062 153.155 66.3799 153.196C66.3535 153.238 66.3193 153.278 66.2773 153.315C66.2363 153.351 66.187 153.381 66.1294 153.406C66.1987 153.428 66.2563 153.458 66.3022 153.494C66.3491 153.53 66.3867 153.57 66.415 153.615C66.4424 153.66 66.4614 153.708 66.4722 153.757C66.4839 153.807 66.4897 153.856 66.4897 153.905C66.4897 154.005 66.4727 154.093 66.4385 154.17C66.4043 154.248 66.3569 154.312 66.2964 154.365C66.2358 154.419 66.1641 154.46 66.0811 154.488C65.999 154.516 65.9102 154.529 65.8145 154.529C65.7207 154.529 65.6323 154.516 65.5493 154.49C65.4673 154.463 65.396 154.425 65.3354 154.374C65.2749 154.323 65.2266 154.261 65.1904 154.188C65.1553 154.115 65.1377 154.031 65.1377 153.938H65.4087C65.4087 153.993 65.418 154.044 65.4365 154.09C65.4561 154.136 65.4834 154.175 65.5186 154.207C65.5537 154.239 65.5962 154.264 65.646 154.282C65.6968 154.299 65.7529 154.308 65.8145 154.308C65.876 154.308 65.9316 154.3 65.9814 154.285C66.0312 154.268 66.0737 154.243 66.1089 154.21C66.144 154.177 66.1709 154.136 66.1895 154.087C66.209 154.037 66.2188 153.979 66.2188 153.911C66.2188 153.845 66.2075 153.788 66.1851 153.74C66.1636 153.691 66.1333 153.65 66.0942 153.618C66.0542 153.586 66.0059 153.562 65.9492 153.546C65.8936 153.531 65.832 153.523 65.7646 153.523H65.5713V153.303ZM63.7695 157.303H63.9629C64.0312 157.303 64.0913 157.294 64.1431 157.275C64.1958 157.257 64.2402 157.231 64.2764 157.199C64.3115 157.167 64.3384 157.128 64.3569 157.083C64.3755 157.039 64.3848 156.989 64.3848 156.936C64.3848 156.872 64.3765 156.817 64.3599 156.77C64.3433 156.722 64.3188 156.683 64.2866 156.651C64.2554 156.621 64.2163 156.599 64.1694 156.584C64.1235 156.568 64.0708 156.561 64.0112 156.561C63.9536 156.561 63.9009 156.569 63.853 156.587C63.8062 156.604 63.7661 156.628 63.7329 156.66C63.6987 156.692 63.6724 156.731 63.6538 156.776C63.6353 156.821 63.626 156.871 63.626 156.927H63.3535C63.3535 156.846 63.3691 156.77 63.4004 156.698C63.4326 156.626 63.4775 156.563 63.5352 156.509C63.5928 156.457 63.6616 156.415 63.7417 156.385C63.8228 156.354 63.9126 156.338 64.0112 156.338C64.1069 156.338 64.1943 156.351 64.2734 156.377C64.3525 156.403 64.4204 156.441 64.4771 156.492C64.5337 156.542 64.5776 156.605 64.6089 156.681C64.6401 156.756 64.6558 156.843 64.6558 156.941C64.6558 156.982 64.6494 157.025 64.6367 157.069C64.624 157.113 64.6045 157.155 64.5781 157.196C64.5518 157.238 64.5176 157.278 64.4756 157.315C64.4346 157.351 64.3853 157.381 64.3276 157.406C64.397 157.428 64.4546 157.458 64.5005 157.494C64.5474 157.53 64.585 157.57 64.6133 157.615C64.6406 157.66 64.6597 157.708 64.6704 157.757C64.6821 157.807 64.688 157.856 64.688 157.905C64.688 158.005 64.6709 158.093 64.6367 158.17C64.6025 158.248 64.5552 158.312 64.4946 158.365C64.4341 158.419 64.3623 158.46 64.2793 158.488C64.1973 158.516 64.1084 158.529 64.0127 158.529C63.9189 158.529 63.8306 158.516 63.7476 158.49C63.6655 158.463 63.5942 158.425 63.5337 158.374C63.4731 158.323 63.4248 158.261 63.3887 158.188C63.3535 158.115 63.3359 158.031 63.3359 157.938H63.6069C63.6069 157.993 63.6162 158.044 63.6348 158.09C63.6543 158.136 63.6816 158.175 63.7168 158.207C63.752 158.239 63.7944 158.264 63.8442 158.282C63.895 158.299 63.9512 158.308 64.0127 158.308C64.0742 158.308 64.1299 158.3 64.1797 158.285C64.2295 158.268 64.272 158.243 64.3071 158.21C64.3423 158.177 64.3691 158.136 64.3877 158.087C64.4072 158.037 64.417 157.979 64.417 157.911C64.417 157.845 64.4058 157.788 64.3833 157.74C64.3618 157.691 64.3315 157.65 64.2925 157.618C64.2524 157.586 64.2041 157.562 64.1475 157.546C64.0918 157.531 64.0303 157.523 63.9629 157.523H63.7695V157.303ZM66.3535 157.784H66.6509V158.005H66.3535V158.5H66.0825V158.005H65.1099V157.845L66.0649 156.367H66.3535V157.784ZM65.4102 157.784H66.0825V156.728L66.0386 156.81L65.4102 157.784ZM63.7695 161.303H63.9629C64.0312 161.303 64.0913 161.294 64.1431 161.275C64.1958 161.257 64.2402 161.231 64.2764 161.199C64.3115 161.167 64.3384 161.128 64.3569 161.083C64.3755 161.039 64.3848 160.989 64.3848 160.936C64.3848 160.872 64.3765 160.817 64.3599 160.77C64.3433 160.722 64.3188 160.683 64.2866 160.651C64.2554 160.621 64.2163 160.599 64.1694 160.584C64.1235 160.568 64.0708 160.561 64.0112 160.561C63.9536 160.561 63.9009 160.569 63.853 160.587C63.8062 160.604 63.7661 160.628 63.7329 160.66C63.6987 160.692 63.6724 160.731 63.6538 160.776C63.6353 160.821 63.626 160.871 63.626 160.927H63.3535C63.3535 160.846 63.3691 160.77 63.4004 160.698C63.4326 160.626 63.4775 160.563 63.5352 160.509C63.5928 160.457 63.6616 160.415 63.7417 160.385C63.8228 160.354 63.9126 160.338 64.0112 160.338C64.1069 160.338 64.1943 160.351 64.2734 160.377C64.3525 160.403 64.4204 160.441 64.4771 160.492C64.5337 160.542 64.5776 160.605 64.6089 160.681C64.6401 160.756 64.6558 160.843 64.6558 160.941C64.6558 160.982 64.6494 161.025 64.6367 161.069C64.624 161.113 64.6045 161.155 64.5781 161.196C64.5518 161.238 64.5176 161.278 64.4756 161.315C64.4346 161.351 64.3853 161.381 64.3276 161.406C64.397 161.428 64.4546 161.458 64.5005 161.494C64.5474 161.53 64.585 161.57 64.6133 161.615C64.6406 161.66 64.6597 161.708 64.6704 161.757C64.6821 161.807 64.688 161.856 64.688 161.905C64.688 162.005 64.6709 162.093 64.6367 162.17C64.6025 162.248 64.5552 162.312 64.4946 162.365C64.4341 162.419 64.3623 162.46 64.2793 162.488C64.1973 162.516 64.1084 162.529 64.0127 162.529C63.9189 162.529 63.8306 162.516 63.7476 162.49C63.6655 162.463 63.5942 162.425 63.5337 162.374C63.4731 162.323 63.4248 162.261 63.3887 162.188C63.3535 162.115 63.3359 162.031 63.3359 161.938H63.6069C63.6069 161.993 63.6162 162.044 63.6348 162.09C63.6543 162.136 63.6816 162.175 63.7168 162.207C63.752 162.239 63.7944 162.264 63.8442 162.282C63.895 162.299 63.9512 162.308 64.0127 162.308C64.0742 162.308 64.1299 162.3 64.1797 162.285C64.2295 162.268 64.272 162.243 64.3071 162.21C64.3423 162.177 64.3691 162.136 64.3877 162.087C64.4072 162.037 64.417 161.979 64.417 161.911C64.417 161.845 64.4058 161.788 64.3833 161.74C64.3618 161.691 64.3315 161.65 64.2925 161.618C64.2524 161.586 64.2041 161.562 64.1475 161.546C64.0918 161.531 64.0303 161.523 63.9629 161.523H63.7695V161.303ZM65.3516 161.431L65.4585 160.367H66.5527V160.631H65.687L65.627 161.199C65.6689 161.175 65.7192 161.153 65.7778 161.135C65.8364 161.116 65.9043 161.107 65.9814 161.107C66.0801 161.107 66.1685 161.124 66.2466 161.158C66.3247 161.192 66.3911 161.24 66.4458 161.302C66.5005 161.364 66.5425 161.439 66.5718 161.527C66.6011 161.615 66.6157 161.713 66.6157 161.82C66.6157 161.922 66.6021 162.016 66.5747 162.103C66.5474 162.19 66.5063 162.265 66.4517 162.327C66.396 162.391 66.3262 162.44 66.2422 162.477C66.1582 162.512 66.0596 162.529 65.9463 162.529C65.8594 162.529 65.7773 162.517 65.7002 162.493C65.623 162.468 65.5547 162.432 65.4951 162.383C65.4346 162.334 65.3848 162.272 65.3457 162.198C65.3076 162.124 65.2837 162.038 65.2739 161.939H65.5317C65.5483 162.06 65.5928 162.152 65.665 162.214C65.7383 162.277 65.832 162.308 65.9463 162.308C66.0107 162.308 66.0679 162.297 66.1177 162.274C66.1675 162.251 66.2095 162.218 66.2437 162.175C66.2769 162.133 66.3018 162.082 66.3184 162.022C66.3359 161.963 66.3447 161.896 66.3447 161.823C66.3447 161.757 66.335 161.695 66.3154 161.637C66.2969 161.58 66.2695 161.529 66.2334 161.486C66.1973 161.444 66.1528 161.411 66.1001 161.387C66.0474 161.362 65.9868 161.35 65.9185 161.35C65.8735 161.35 65.8345 161.354 65.8013 161.36C65.769 161.366 65.7397 161.375 65.7134 161.387C65.687 161.398 65.6621 161.413 65.6387 161.429C65.6162 161.446 65.5928 161.465 65.5684 161.486L65.3516 161.431ZM63.7695 165.303H63.9629C64.0312 165.303 64.0913 165.294 64.1431 165.275C64.1958 165.257 64.2402 165.231 64.2764 165.199C64.3115 165.167 64.3384 165.128 64.3569 165.083C64.3755 165.039 64.3848 164.989 64.3848 164.936C64.3848 164.872 64.3765 164.817 64.3599 164.77C64.3433 164.722 64.3188 164.683 64.2866 164.651C64.2554 164.621 64.2163 164.599 64.1694 164.584C64.1235 164.568 64.0708 164.561 64.0112 164.561C63.9536 164.561 63.9009 164.569 63.853 164.587C63.8062 164.604 63.7661 164.628 63.7329 164.66C63.6987 164.692 63.6724 164.731 63.6538 164.776C63.6353 164.821 63.626 164.871 63.626 164.927H63.3535C63.3535 164.846 63.3691 164.77 63.4004 164.698C63.4326 164.626 63.4775 164.563 63.5352 164.509C63.5928 164.457 63.6616 164.415 63.7417 164.385C63.8228 164.354 63.9126 164.338 64.0112 164.338C64.1069 164.338 64.1943 164.351 64.2734 164.377C64.3525 164.403 64.4204 164.441 64.4771 164.492C64.5337 164.542 64.5776 164.605 64.6089 164.681C64.6401 164.756 64.6558 164.843 64.6558 164.941C64.6558 164.982 64.6494 165.025 64.6367 165.069C64.624 165.113 64.6045 165.155 64.5781 165.196C64.5518 165.238 64.5176 165.278 64.4756 165.315C64.4346 165.351 64.3853 165.381 64.3276 165.406C64.397 165.428 64.4546 165.458 64.5005 165.494C64.5474 165.53 64.585 165.57 64.6133 165.615C64.6406 165.66 64.6597 165.708 64.6704 165.757C64.6821 165.807 64.688 165.856 64.688 165.905C64.688 166.005 64.6709 166.093 64.6367 166.17C64.6025 166.248 64.5552 166.312 64.4946 166.365C64.4341 166.419 64.3623 166.46 64.2793 166.488C64.1973 166.516 64.1084 166.529 64.0127 166.529C63.9189 166.529 63.8306 166.516 63.7476 166.49C63.6655 166.463 63.5942 166.425 63.5337 166.374C63.4731 166.323 63.4248 166.261 63.3887 166.188C63.3535 166.115 63.3359 166.031 63.3359 165.938H63.6069C63.6069 165.993 63.6162 166.044 63.6348 166.09C63.6543 166.136 63.6816 166.175 63.7168 166.207C63.752 166.239 63.7944 166.264 63.8442 166.282C63.895 166.299 63.9512 166.308 64.0127 166.308C64.0742 166.308 64.1299 166.3 64.1797 166.285C64.2295 166.268 64.272 166.243 64.3071 166.21C64.3423 166.177 64.3691 166.136 64.3877 166.087C64.4072 166.037 64.417 165.979 64.417 165.911C64.417 165.845 64.4058 165.788 64.3833 165.74C64.3618 165.691 64.3315 165.65 64.2925 165.618C64.2524 165.586 64.2041 165.562 64.1475 165.546C64.0918 165.531 64.0303 165.523 63.9629 165.523H63.7695V165.303ZM66.2539 164.366V164.609H66.2305C66.1016 164.609 65.9922 164.627 65.9023 164.665C65.8125 164.701 65.7383 164.75 65.6797 164.811C65.6182 164.875 65.5713 164.952 65.5391 165.041C65.5078 165.13 65.4893 165.221 65.4834 165.315C65.5088 165.285 65.5381 165.257 65.5713 165.231C65.6045 165.205 65.6406 165.182 65.6797 165.163C65.7178 165.144 65.7588 165.129 65.8027 165.119C65.8477 165.107 65.8945 165.101 65.9434 165.101C66.0498 165.101 66.1416 165.122 66.2188 165.163C66.2959 165.203 66.3594 165.256 66.4092 165.322C66.459 165.389 66.4956 165.464 66.519 165.548C66.5425 165.632 66.5542 165.717 66.5542 165.804C66.5542 165.904 66.54 165.998 66.5117 166.085C66.4844 166.173 66.4429 166.25 66.3872 166.315C66.3315 166.382 66.2622 166.434 66.1792 166.472C66.0972 166.51 66.002 166.529 65.8936 166.529C65.7842 166.529 65.688 166.507 65.605 166.463C65.522 166.419 65.4521 166.362 65.3955 166.292C65.332 166.215 65.2847 166.125 65.2534 166.022C65.2222 165.919 65.2065 165.815 65.2065 165.712V165.584C65.2065 165.407 65.2275 165.232 65.2695 165.06C65.3115 164.888 65.3936 164.741 65.5156 164.619C65.5996 164.535 65.7017 164.472 65.8218 164.43C65.9419 164.387 66.0781 164.366 66.2305 164.366H66.2539ZM65.8994 165.327C65.8535 165.327 65.8091 165.334 65.7661 165.349C65.7231 165.363 65.6831 165.384 65.646 165.41C65.6089 165.437 65.5762 165.468 65.5479 165.505C65.5195 165.542 65.4971 165.583 65.4805 165.628V165.719C65.4805 165.813 65.4917 165.896 65.5142 165.97C65.5366 166.042 65.5669 166.103 65.605 166.153C65.6431 166.203 65.687 166.241 65.7368 166.267C65.7866 166.292 65.8389 166.305 65.8936 166.305C65.957 166.305 66.0132 166.293 66.062 166.269C66.1108 166.244 66.1523 166.21 66.1865 166.167C66.2197 166.125 66.2446 166.073 66.2612 166.014C66.2788 165.953 66.2876 165.888 66.2876 165.817C66.2876 165.755 66.2798 165.694 66.2642 165.636C66.2485 165.576 66.2246 165.523 66.1924 165.478C66.1602 165.432 66.1196 165.395 66.0708 165.368C66.022 165.34 65.9648 165.327 65.8994 165.327Z" fill="#45475A"/>
<rect x="68" y="24" width="296" height="3" fill="#313244"/>
<rect x="68" y="24" width="78" height="3" fill="#CBA6F7" fill-opacity="0.4"/>
<rect x="68" y="92" width="45" height="3" fill="#CBA6F7" fill-opacity="0.4"/>
<rect x="68" y="140" width="73" height="3" fill="#CBA6F7" fill-opacity="0.4"/>
<rect x="68" y="8" width="14" height="3" fill="#CBA6F7" fill-opacity="0.4"/>
<rect x="68" y="4" width="14" height="3" fill="#CBA6F7" fill-opacity="0.4"/>
<rect x="83" y="4" width="20" height="3" fill="#CDD6F4" fill-opacity="0.4"/>
<path d="M83 8H103V11H83V8Z" fill="#CDD6F4" fill-opacity="0.4"/>
<rect x="68" y="52" width="14" height="3" fill="#CBA6F7" fill-opacity="0.4"/>
<rect x="68" y="48" width="14" height="3" fill="#CBA6F7" fill-opacity="0.4"/>
<rect x="83" y="48" width="11" height="3" fill="#CDD6F4" fill-opacity="0.4"/>
<path d="M83 52H107V55H83V52Z" fill="#CDD6F4" fill-opacity="0.4"/>
<rect x="68" y="116" width="14" height="3" fill="#CBA6F7" fill-opacity="0.4"/>
<rect x="68" y="112" width="14" height="3" fill="#CBA6F7" fill-opacity="0.4"/>
<rect x="83" y="112" width="6" height="3" fill="#CDD6F4" fill-opacity="0.4"/>
<path d="M83 116H101V119H83V116Z" fill="#CDD6F4" fill-opacity="0.4"/>
<rect x="68" y="76" width="14" height="3" fill="#CBA6F7" fill-opacity="0.4"/>
<path d="M83 76H107V79H83V76Z" fill="#CDD6F4" fill-opacity="0.4"/>
<path d="M68 64H92V67H68V64Z" fill="#F38BA8" fill-opacity="0.4"/>
<path d="M68 144H82V147H68V144Z" fill="#F38BA8" fill-opacity="0.4"/>
<path d="M93 64H117V67H93V64Z" fill="#A6E3A1" fill-opacity="0.4"/>
<path d="M90 112H114V115H90V112Z" fill="#A6E3A1" fill-opacity="0.4"/>
<rect x="68" y="28" width="64" height="3" fill="#CDD6F4" fill-opacity="0.4"/>
<rect x="68" y="32" width="37" height="3" fill="#CDD6F4" fill-opacity="0.4"/>
<rect x="68" y="100" width="37" height="3" fill="#CDD6F4" fill-opacity="0.4"/>
<rect x="68" y="104" width="48" height="3" fill="#CDD6F4" fill-opacity="0.4"/>
<rect x="68" y="128" width="48" height="3" fill="#CDD6F4" fill-opacity="0.4"/>
<rect x="68" y="152" width="31" height="3" fill="#CDD6F4" fill-opacity="0.4"/>
<rect x="68" y="156" width="35" height="3" fill="#CDD6F4" fill-opacity="0.4"/>
<rect x="68" y="160" width="23" height="3" fill="#CDD6F4" fill-opacity="0.4"/>
<rect x="68" y="20" width="64" height="3" fill="#89B4FA" fill-opacity="0.4"/>
<rect x="68" y="80" width="51" height="3" fill="#89B4FA" fill-opacity="0.4"/>
<rect x="68" y="84" width="39" height="3" fill="#89B4FA" fill-opacity="0.4"/>
<rect x="68" y="96" width="63" height="3" fill="#89B4FA" fill-opacity="0.4"/>
<rect x="68" y="124" width="27" height="3" fill="#89B4FA" fill-opacity="0.4"/>
<rect x="68" y="132" width="20" height="3" fill="#89B4FA" fill-opacity="0.4"/>
<rect x="83" y="144" width="33" height="3" fill="#89B4FA" fill-opacity="0.4"/>
<rect x="68" y="136" width="31" height="3" fill="#89B4FA" fill-opacity="0.4"/>
<rect x="68" y="16" width="85" height="3" fill="#89B4FA" fill-opacity="0.4"/>
<rect x="68" y="36" width="72" height="3" fill="#89B4FA" fill-opacity="0.4"/>
<rect x="68" y="40" width="26" height="3" fill="#FAB387" fill-opacity="0.4"/>
<rect x="68" y="56" width="20" height="3" fill="#FAB387" fill-opacity="0.4"/>
<rect x="68" y="68" width="37" height="3" fill="#FAB387" fill-opacity="0.4"/>
<rect x="172" y="3" width="3" height="165" fill="#313244"/>
</svg>
