<svg width="388" height="856" viewBox="0 0 388 856" fill="none" xmlns="http://www.w3.org/2000/svg">
<g clip-path="url(#clip0_3_30)">
<path d="M193.664 431.853L215.513 507.083L250.035 542.091L292.398 500.859L193.664 431.853Z" fill="#CBBCCE"/>
<path d="M202.9 421.461C202.9 421.461 208.814 420.045 215.75 420.416L214.5 429.666C214.5 429.666 209.033 430.09 201.767 431.504L202.9 421.461Z" fill="#D8D8D8"/>
<path d="M284.622 84.469C284.622 69.558 272.533 57.469 257.622 57.469H119.632C104.721 57.469 92.632 69.558 92.632 84.469V223.959C92.632 238.871 104.721 250.959 119.632 250.959H257.622C272.533 250.959 284.622 238.871 284.622 223.959V84.469Z" fill="#FCDFCE"/>
<path d="M124.5 104.916C124.5 104.916 113.5 129.916 92.5 138.916V107.916L124.5 104.916Z" fill="#6F3416"/>
<path d="M252.622 104.916C252.622 104.916 263.622 129.916 284.622 138.916V107.916L252.622 104.916Z" fill="#6F3416"/>
<path d="M280.09 45.633C272.876 26.008 263.06 15.65 237.09 8.008L187.876 0L138.662 8.008C112.692 15.65 102.876 26.008 95.662 45.633C88.448 65.258 85.876 114.008 85.876 114.008L187.876 91.008L289.876 114.008C289.876 114.008 287.304 65.258 280.09 45.633Z" fill="#40728D"/>
<path d="M292.398 126.489C227.31 90.706 148.441 90.706 83.353 126.489C83.353 121.989 83.353 117.489 83.353 112.99C148.441 77.207 227.31 77.207 292.398 112.99C292.398 117.49 292.398 121.99 292.398 126.489Z" fill="#49819E"/>
<path d="M292.398 110.006C227.31 74.224 148.441 74.224 83.353 110.006C83.353 111.001 83.353 111.995 83.353 112.99C148.441 77.207 227.31 77.207 292.398 112.99C292.398 111.996 292.398 111.001 292.398 110.006Z" fill="#C7E3EF"/>
<path d="M239.876 266.916H187.876H135.876L54.876 289.916L82.876 554.916H187.876H292.876L320.876 289.916L239.876 266.916Z" fill="#1E1E1E"/>
<path d="M54.876 289.916C24.876 298.916 10.876 350.916 6.876 373.916L65.645 391.835L54.876 289.916Z" fill="#111111"/>
<path d="M284.866 242.006V220.42V206.484V143.916H267.644L259.636 206.484H245.875V196.504C245.875 189.877 243.03 184.008 233.875 180.5C233.875 180.5 212.069 169.489 188.069 169.489C164.069 169.489 144.748 178.498 144.748 178.498C134.993 182.008 132.748 187.875 132.748 194.502V206.484H117.86L110.852 143.916H92.632V206.484V222.422V244.008C92.632 282.028 159.683 302.235 187.876 302.235C216.069 302.235 284.866 283.177 284.866 242.006Z" fill="#A63822"/>
<path d="M188.627 197.484H156.497C156.497 213.18 188.627 211.908 188.627 211.908C188.627 211.908 220.757 213.18 220.757 197.484H188.627Z" fill="#FCDFCE"/>
<path d="M320.876 289.916C350.876 298.916 368.88 350.916 372.88 373.916L310.108 391.835L320.876 289.916Z" fill="#111111"/>
<path d="M292.859 554.916H187.545H82.229L76.876 855.251H170.665L175.908 668.916L187.545 667.916L199.182 668.916L204.424 855.251H298.213L292.859 554.916Z" fill="#425BB0"/>
<path d="M321.876 471.91L310.107 391.835L368.876 373.916L386.998 482.25L387.328 528.91L360.331 547.914L250.331 489.583L261.664 451.576L321.876 471.91Z" fill="#FCDFCD"/>
<path d="M270.673 455.58L245.876 421.583L219.756 416.586C219.756 416.586 188.51 437.246 201.92 477.914L229.698 488.916L250.331 489.584L270.673 455.58Z" fill="#FCDFCD"/>
<path d="M166.33 400.916C151.375 400.916 146.273 402.25 127.969 405.583L136.996 485.583C136.996 485.583 149.664 494.915 166.33 494.915C182.996 494.915 195.664 485.583 195.664 485.583L204.691 405.583C186.387 402.25 181.285 400.916 166.33 400.916Z" fill="white"/>
<path d="M127.969 405.583C127.969 405.583 163.885 415.75 204.692 405.583C186.387 402.25 181.286 400.916 166.331 400.916C151.376 400.916 146.273 402.25 127.969 405.583Z" fill="#D8D8D8"/>
<path d="M14.867 376.353L0 476.89C0 476.89 34.25 540.913 83.622 577.913L87.494 594.913C87.494 594.913 120.994 587.913 134.994 573.913C134.994 573.913 84 498.977 60 454.946L67.66 410.915L65.644 391.834L14.867 376.353Z" fill="#FCDFCD"/>
<path d="M257 485.916C256.576 486.758 256.027 487.496 255.354 488.135C262.268 476.127 270.643 463.992 280.865 454.947C278.283 460.599 261.633 494.967 267.906 499.052C272.427 501.995 292.196 472.138 295.821 467.95C295.473 474.389 284.716 499.69 292.958 503.007C301.767 506.55 319.698 474.128 327.969 470.956C325.388 476.269 309.421 506.854 314.862 511.102C320.8 515.741 351.518 482.879 358.738 479.153C356.494 485.442 335.035 509.567 340.107 516.78C345.189 524.007 367.064 504.01 373.664 501.979C373.266 512.885 359.393 522.399 357.287 533.629C359.564 533.272 362.873 532.324 365.002 530.914" stroke="#A63822" stroke-width="5" stroke-miterlimit="10" stroke-linecap="round" stroke-linejoin="round"/>
<path d="M34.232 452.148C23.943 462.48 12.14 474.728 10.5 489.916C10.323 491.556 12.226 492.73 13.665 492.326C27.406 488.465 36.87 476.55 49.262 470.074C48.122 468.934 46.982 467.795 45.842 466.654C37.145 481.556 23.01 495.701 22.501 513.916C22.464 515.242 23.667 516.465 25.001 516.416C41.566 515.816 50.749 497.941 66.666 495.326C65.725 494.102 64.784 492.879 63.843 491.654C59.412 500.008 52.242 507.203 46.927 515.022C43.441 520.15 34.931 531.351 40.234 537.683C45.256 543.68 57.693 536.117 62.625 533.586C71.323 529.123 79.349 523.065 88.264 519.073C87.124 517.933 85.984 516.794 84.844 515.653C80.246 522.243 73.719 527.714 68.5 533.82C64.375 538.645 56.375 547.004 58.051 554.133C61.303 567.967 91.346 546.603 97.668 544.324C96.727 543.1 95.786 541.877 94.845 540.652C89.26 549.146 79.101 555.959 78.504 566.914C78.328 570.138 83.329 570.12 83.504 566.914C84.017 557.514 94.3 550.57 99.163 543.176C100.329 541.403 98.393 538.764 96.34 539.504C90.116 541.746 84.377 545.57 78.479 548.526C76.688 549.423 62.15 556.843 62.948 551.816C64.054 544.844 71.236 538.153 75.71 533.166C80.148 528.22 85.349 523.643 89.164 518.176C90.755 515.896 87.783 513.842 85.744 514.756C78.491 518.004 71.825 522.822 64.893 526.693C60.622 529.078 56.261 531.379 51.694 533.149C50.301 533.689 45.146 535.977 43.896 534.291C42.344 532.197 45.505 527.134 46.44 525.362C48.714 521.05 51.546 517.022 54.376 513.063C58.824 506.84 64.57 500.954 68.165 494.176C69.262 492.109 67.481 490.153 65.342 490.504C57.761 491.748 51.493 496.275 45.484 500.787C39.464 505.307 32.908 511.128 25.006 511.414C25.839 512.247 26.673 513.081 27.506 513.914C27.982 496.907 42.033 483.109 50.165 469.176C51.472 466.937 48.92 464.618 46.745 465.756C34.808 471.992 25.538 483.795 12.342 487.504C13.397 488.307 14.452 489.11 15.507 489.914C16.98 476.28 28.591 464.904 37.775 455.682C40.044 453.397 36.51 449.861 34.232 452.148Z" fill="#A63822"/>
<path opacity="0.5" d="M166.33 400.916C146 381.916 147.78 339.459 156 313.916C162.114 294.916 168.91 261.268 152.58 234.925C152.58 234.925 192 259.916 178 295.916C164 331.916 166.33 400.916 166.33 400.916Z" fill="white"/>
<path opacity="0.5" d="M179 399.916C170 379.916 178 357.916 185 330.916C192 303.916 188 294.916 188 294.916C188 294.916 200 311.916 195 336.916C190 361.916 179 399.916 179 399.916Z" fill="white"/>
<path d="M136.623 62.304V60.61H134.929V58.916H133.235V57.222H131.541V55.528H129.847V53.834H131.541V52.14H133.235V50.446H134.929V48.75H136.623V47.056H140.012V48.75H138.317V50.444H136.624V52.138H134.93V53.832H133.236V55.526H134.93V57.22H136.624V58.914H138.317V60.608H140.012V62.302H136.623V62.304Z" fill="#C7E3EF"/>
<path d="M141.707 63.999V60.61H143.401V43.667H141.707V40.278H146.79V47.055H153.566V48.749H155.261V60.609H156.954V63.998H150.177V60.61H151.872V50.444H146.789V60.61H148.483V63.999H141.707Z" fill="#C7E3EF"/>
<path d="M162.039 63.999V62.305H160.345V48.75H162.039V47.056H170.51V48.75H172.205V57.221H163.733V60.61H168.816V58.916H172.205V62.305H170.51V63.999H162.039ZM163.733 53.833H168.816V50.444H163.733V53.833Z" fill="#C7E3EF"/>
<path d="M177.273 63.999V62.305H175.58V55.528H177.273V53.834H184.05V50.445H178.968V52.139H175.579V48.75H177.272V47.056H185.744V48.75H187.438V60.61H189.132V63.999H177.273ZM178.969 60.61H184.051V57.221H178.969V60.61Z" fill="#C7E3EF"/>
<path d="M194.216 63.999V62.305H192.522V48.75H194.216V47.056H200.992V43.667H199.299V40.278H204.381V60.61H206.076V63.999H194.216ZM195.91 60.61H200.992V50.444H195.91V60.61Z" fill="#C7E3EF"/>
<path d="M211.177 63.999V62.305H209.483V48.75H211.177V47.056H219.649V48.75H221.342V57.221H212.871V60.61H217.953V58.916H221.342V62.305H219.649V63.999H211.177ZM212.871 53.833H217.953V50.444H212.871V53.833Z" fill="#C7E3EF"/>
<path d="M223.033 63.999V60.61H224.726V50.444H223.033V47.055H234.892V48.749H236.586V52.138H233.197V50.444H228.114V60.61H229.809V63.999H223.033Z" fill="#C7E3EF"/>
<path d="M241.67 62.304H238.281V60.61H239.975V58.916H241.669V57.222H243.363V55.528H245.057V53.834H243.363V52.14H241.669V50.446H239.975V48.75H238.281V47.056H241.67V48.75H243.364V50.444H245.058V52.138H246.751V53.832H248.446V55.526H246.751V57.22H245.058V58.914H243.364V60.608H241.67V62.304Z" fill="#C7E3EF"/>
</g>
<defs>
<clipPath id="clip0_3_30">
<rect width="387.328" height="855.251" fill="white"/>
</clipPath>
</defs>
</svg>
