<svg width="389" height="855" viewBox="0 0 389 855" fill="none" xmlns="http://www.w3.org/2000/svg">
<path d="M300 855L294.5 555H85.5L80 855H173.5L178.5 669L190 667L201.5 669L206.5 855H300Z" fill="#425BB0"/>
<path d="M294.5 555.5H190H85L56 291C56 291 140.5 264 190 264C239.5 264 323.5 291 323.5 291L294.5 555.5Z" fill="#1E1E1E"/>
<path d="M56.5 291L68 392L10 374.5C21.6918 323.361 29.5 303 56.5 291Z" fill="#111111"/>
<path d="M323.5 291L312 392L370 374.5C358.308 323.361 350.5 303 323.5 291Z" fill="#111111"/>
<path d="M124 107L108 126V207.5H264.5L279.5 126L263 109L191.5 95L124 107Z" fill="#FCDFCD"/>
<path d="M111 128L95 140V249C94.9999 286.5 174 302.5 191.5 302.5C209 302.5 283.222 288.5 286.5 249C289.778 209.5 286.5 140 286.5 140L271 128L261.5 205.5H247.5V189C239.498 176.255 206 168 191.5 168C177 168 139.901 177.534 136 189V205.5H120.5L111 128Z" fill="#A63822"/>
<path d="M223 198.5H158C161.529 208.266 168.5 213 191 213C213.5 213 221.217 207.83 223 198.5Z" fill="#FCDFCD"/>
<path d="M95 122V141C109.503 131.998 116.417 122.191 124.5 108.5L95 122Z" fill="#6F3416"/>
<path d="M287 122V141C272.497 131.998 266.083 124.691 258 111L287 122Z" fill="#6F3416"/>
<path d="M190 100.5C149.671 101.314 126.925 106.262 86 127V111L89 109.5C89 109.5 89.6604 77.5 96 53.5C102.34 29.5 117.724 13.873 141 9C141 9 171.5 1.5 190 1.5C208.5 1.5 239 9 239 9C262.276 13.873 277.66 29.5 284 53.5C290.34 77.5 291 109.5 291 109.5L294 111V127C253.075 106.262 230.329 101.314 190 100.5Z" fill="#624129"/>
<mask id="mask0_23_59" style="mask-type:alpha" maskUnits="userSpaceOnUse" x="86" y="0" width="208" height="127">
<path d="M190 100.5C149.671 101.314 126.925 106.262 86 127V111L89 109.5C89 109.5 89.6604 77.5 96 53.5C102.34 29.5 117.724 13.873 141 9L190 0L239 9C262.276 13.873 277.66 29.5 284 53.5C290.34 77.5 291 109.5 291 109.5L294 111V127C253.075 106.262 230.329 101.314 190 100.5Z" fill="#40728D"/>
</mask>
<g mask="url(#mask0_23_59)">
<path d="M139.5 45C127 57.5 128.196 65.3586 127.5 93V95L158 88L188.5 86L219.5 88L250 95V93C249.304 65.3586 250.5 57.5001 238 45C238 45 223 34 188.5 34C154 34 139.5 45 139.5 45Z" fill="#443021"/>
<path d="M86.5 111.5C86.5 111.5 130 85 190.5 85.5C251 86 293.5 111.5 293.5 111.5" stroke="#987963" stroke-width="2" stroke-linecap="round"/>
</g>
<path d="M199.5 486.5L208 406.5C208 406.5 190.5 402 170 402C149.5 402 132 406.5 132 406.5L140.5 486.5C151.337 493.682 157.788 495.735 170 496C182.212 495.735 188.663 493.682 199.5 486.5Z" fill="white"/>
<mask id="mask1_23_59" style="mask-type:luminance" maskUnits="userSpaceOnUse" x="132" y="401" width="76" height="95">
<path d="M171.5 401.5L170 496C182.212 495.735 188.663 493.682 199.5 486.5L208 406.5C193.713 402.576 187.978 401.63 171.5 401.5Z" fill="white"/>
<path d="M171.5 401.5L170 496C157.788 495.735 151.337 493.682 140.5 486.5L132 406.5C146.287 402.576 155.022 401.63 171.5 401.5Z" fill="white"/>
</mask>
<g mask="url(#mask1_23_59)">
<path d="M170 401.5C148 401.5 132 406.5 132 406.5C132 406.5 155.5 411 170 411C184.5 411 208.5 406.5 208.5 406.5C208.5 406.5 192 401.5 170 401.5Z" fill="#D0D0D0" stroke="#C6C6C6"/>
</g>
<mask id="mask2_23_59" style="mask-type:luminance" maskUnits="userSpaceOnUse" x="0" y="376" width="139" height="223">
<path d="M67 391.5L17.5 376.5L15 376L0 479.194L46.1679 545.641L83.4 579.368L88.8607 599L139 578.361L136.518 574.837L61.5571 455.032L69.5 414.257L67 391.5Z" fill="white"/>
</mask>
<g mask="url(#mask2_23_59)">
<path d="M73 393.5L16.5 376.5L2 478.5C31.5857 527.774 49.8792 550.088 86 579L89 596C110.759 591.187 121.293 586.486 137.5 575C105.562 527.927 88.2069 501.634 61.5 455.5L73 393.5Z" fill="#FCDFCD"/>
</g>
<path d="M369.5 374.5L312.5 391.5L324 473L272 455.5L248 423L222 418C202.864 436.664 199.135 450.275 203.5 479.5L231 491H253L362 549L389 530V484.5L369.5 374.5Z" fill="#FCDFCD"/>
</svg>
