<svg width="300" height="403" viewBox="0 0 300 403" fill="none" xmlns="http://www.w3.org/2000/svg">
<path d="M300 308H8.01952e-06V337C2.60634e-05 360 25.5426 403 73.1219 403H228.882C280.968 403 300 355 300 337V308Z" fill="#F3F3F3"/>
<path d="M0.00012207 25.5V309H300V25.5C300 16 292.5 0 274 0H25.5001C6.0003 0 0.00012207 16 0.00012207 25.5Z" fill="#C4CBCB"/>
<path d="M247.5 49.5L223.5 16.5L250.5 11L252.5 14.5L274 15.5L300 32V40.5L274 25H260L262.5 28.5L247.5 49.5Z" fill="#E2E2E2"/>
<path d="M165 44L232 28.5L238.5 38L201.5 94.5L165 44Z" fill="#93C9F9"/>
<path d="M121 249V309H81V291C81 289.5 81 287.5 77.5 287.5C75.0001 287.5 61.0001 286.5 61 269.5V249H121Z" fill="#4058B7"/>
<path d="M124.5 249.5H54.5V189.5C56.155 167.048 65.5 140 91.5 140C117.5 140 121.882 168.457 124.5 189.5V249.5Z" fill="#1E1E1E"/>
<path d="M117.876 156.698L90.8765 174.698C90.8765 174.698 81.1357 163.031 77.8765 153.698C76.2468 149.031 76.8765 145.698 79.8765 143.198C82.8764 140.698 88.3764 136.912 91.3765 135.198C94.3765 133.484 98.4769 133.435 101.876 136.198C109.719 142.572 117.876 156.698 117.876 156.698Z" fill="#111111"/>
<path d="M135 140V90H65V130C69.4584 137.932 74.2647 139.438 84.5 140H135Z" fill="#FCDFCD"/>
<path d="M105 104H85V140.5C85.609 154.024 97 159.5 103.5 159.5H120.5C127.5 159.5 135 153.5 135 147V112H129C126.129 112.358 125.025 113.1 125 116.5V120H105V104Z" fill="#B22C11"/>
<path d="M111.5 160.5L124.5 180.346L138.5 159.5L140.5 156.5C141.611 154.833 137.188 151.188 133.5 147.5C129.812 143.812 132.5 141.5 135 139C137.5 136.5 139.061 137.061 142.5 140.5C145.939 143.939 149.656 147.144 151 150C152.5 152.5 152 154.5 150.5 158L134 194.5C130.05 201.74 116 201 112 197C108 193 93.4 173 93.4 173L111.5 160.5Z" fill="#FCDFCD"/>
<path d="M71 104V130H61.5C56.5 130 55 127.5 55 117.5V90H125V98.5C125 104 118.891 103.852 111.5 104H71Z" fill="#6F3416"/>
<path d="M155 80V90H55V67.5C55 58 70.5 50 83.5 50H93V74C93 76.5 95 80 101 80H155Z" fill="#49819E"/>
<path d="M125 62.5V80H99.5C94.5 80 93 77 93 74V50H112C120.5 50 125 56.5 125 62.5Z" fill="#2F7390"/>
</svg>
